<svg xmlns="http://www.w3.org/2000/svg" xmlns:xlink="http://www.w3.org/1999/xlink" width="1080" zoomAndPan="magnify" viewBox="0 0 810 479.999983" height="640" preserveAspectRatio="xMidYMid meet" version="1.0"><defs><clipPath id="6210ad8b89"><path d="M 162.753906 232.257812 L 639.125 232.257812 L 639.125 480 L 162.753906 480 Z M 162.753906 232.257812 " clip-rule="nonzero"/></clipPath></defs><g clip-path="url(#6210ad8b89)"><path fill="#08946c" d="M 571.261719 464.515625 L 369.96875 464.515625 L 369.96875 387.097656 L 354.484375 387.097656 L 354.484375 464.515625 L 230.613281 464.515625 L 230.613281 325.160156 L 320.160156 325.160156 L 354.484375 267.945312 L 354.484375 371.613281 L 369.96875 371.613281 L 369.96875 267.945312 L 404.292969 325.160156 L 571.261719 325.160156 Z M 227.257812 247.742188 L 348.558594 247.742188 L 311.390625 309.675781 L 190.089844 309.675781 Z M 574.617188 247.742188 L 611.785156 309.675781 L 413.066406 309.675781 L 375.898438 247.742188 Z M 639.125 325.160156 L 583.386719 232.257812 L 218.488281 232.257812 L 162.753906 325.160156 L 215.132812 325.160156 L 215.132812 480 L 586.746094 480 L 586.746094 325.160156 L 639.125 325.160156 " fill-opacity="1" fill-rule="nonzero"/></g><path fill="#08946c" d="M 493.839844 433.546875 L 478.355469 433.546875 L 478.355469 449.03125 L 493.839844 449.03125 L 493.839844 433.546875 " fill-opacity="1" fill-rule="nonzero"/><path fill="#08946c" d="M 524.808594 433.546875 L 509.324219 433.546875 L 509.324219 449.03125 L 524.808594 449.03125 L 524.808594 433.546875 " fill-opacity="1" fill-rule="nonzero"/><path fill="#08946c" d="M 555.777344 433.546875 L 540.292969 433.546875 L 540.292969 449.03125 L 555.777344 449.03125 L 555.777344 433.546875 " fill-opacity="1" fill-rule="nonzero"/><path fill="#08946c" d="M 402.296875 147.097656 L 369.96875 147.097656 L 369.96875 61.933594 L 424.164062 61.933594 L 424.164062 46.453125 L 369.96875 46.453125 C 361.441406 46.453125 354.484375 53.40625 354.484375 61.933594 L 354.484375 162.582031 L 368.640625 162.582031 L 339.003906 197.148438 L 309.394531 162.582031 L 323.519531 162.582031 L 323.519531 54.195312 C 323.519531 32.84375 340.90625 15.484375 362.226562 15.484375 L 424.164062 15.484375 L 424.164062 0 L 362.226562 0 C 332.347656 0 308.035156 24.316406 308.035156 54.195312 L 308.035156 147.097656 L 275.734375 147.097656 L 339.003906 220.917969 L 402.296875 147.097656 " fill-opacity="1" fill-rule="nonzero"/><path fill="#08946c" d="M 455.132812 0 L 439.648438 0 L 439.648438 61.933594 L 455.132812 61.933594 L 455.132812 0 " fill-opacity="1" fill-rule="nonzero"/><path fill="#08946c" d="M 486.097656 0 L 470.613281 0 L 470.613281 61.933594 L 486.097656 61.933594 L 486.097656 0 " fill-opacity="1" fill-rule="nonzero"/><path fill="#08946c" d="M 517.066406 0 L 501.582031 0 L 501.582031 61.933594 L 517.066406 61.933594 L 517.066406 0 " fill-opacity="1" fill-rule="nonzero"/></svg>