<svg xmlns="http://www.w3.org/2000/svg" xmlns:xlink="http://www.w3.org/1999/xlink" width="1080" zoomAndPan="magnify" viewBox="0 0 810 479.999983" height="640" preserveAspectRatio="xMidYMid meet" version="1.0"><path fill="#08946c" d="M 421.472656 240 C 461.167969 240 493.472656 207.695312 493.472656 168 C 493.472656 128.304688 461.167969 96 421.472656 96 C 381.777344 96 349.472656 128.304688 349.472656 168 C 349.472656 207.695312 381.777344 240 421.472656 240 Z M 421.472656 112 C 452.351562 112 477.472656 137.121094 477.472656 168 C 477.472656 198.878906 452.351562 224 421.472656 224 C 390.59375 224 365.472656 198.878906 365.472656 168 C 365.472656 137.121094 390.59375 112 421.472656 112 Z M 421.472656 112 " fill-opacity="1" fill-rule="nonzero"/><path fill="#08946c" d="M 182.511719 211.945312 C 183.929688 214.449219 186.59375 216 189.472656 216 L 322.503906 216 L 322.855469 234 C 322.921875 237.351562 325.074219 240.3125 328.242188 241.398438 L 360.128906 252.441406 L 380.464844 279.367188 C 382.488281 282.046875 385.96875 283.175781 389.175781 282.199219 L 421.472656 272.359375 L 453.761719 282.191406 C 454.53125 282.425781 455.3125 282.535156 456.097656 282.535156 C 458.5625 282.535156 460.9375 281.390625 462.480469 279.359375 L 482.824219 252.433594 L 514.714844 241.390625 C 517.882812 240.296875 520.035156 237.34375 520.097656 233.992188 L 520.441406 216 L 653.472656 216 C 656.351562 216 659.015625 214.449219 660.433594 211.945312 C 661.855469 209.441406 661.816406 206.359375 660.328125 203.886719 L 638.800781 168 L 660.328125 132.121094 C 661.816406 129.648438 661.847656 126.566406 660.433594 124.0625 C 659.015625 121.550781 656.351562 120 653.472656 120 L 520.441406 120 L 520.089844 102 C 520.023438 98.648438 517.875 95.6875 514.707031 94.601562 L 482.816406 83.558594 L 462.472656 56.640625 C 460.449219 53.960938 456.960938 52.832031 453.761719 53.808594 L 421.472656 63.640625 L 389.183594 53.808594 C 385.976562 52.839844 382.496094 53.960938 380.472656 56.640625 L 360.128906 83.566406 L 328.242188 94.609375 C 325.074219 95.703125 322.921875 98.65625 322.855469 102.007812 L 322.503906 120 L 189.472656 120 C 186.59375 120 183.929688 121.550781 182.511719 124.054688 C 181.089844 126.558594 181.128906 129.640625 182.617188 132.113281 L 204.144531 168 L 182.617188 203.878906 C 181.128906 206.351562 181.089844 209.433594 182.511719 211.945312 Z M 639.34375 136 L 622.617188 163.878906 C 621.097656 166.414062 621.097656 169.574219 622.617188 172.113281 L 639.34375 200 L 520.929688 200 L 540.035156 172.566406 C 541.945312 169.824219 541.945312 166.175781 540.035156 163.425781 L 520.929688 136 Z M 336.714844 142.886719 C 337.617188 141.59375 338.113281 140.054688 338.144531 138.472656 L 338.746094 107.886719 L 367.664062 97.878906 C 369.167969 97.359375 370.472656 96.40625 371.433594 95.144531 L 389.875 70.734375 L 419.144531 79.65625 C 420.664062 80.121094 422.289062 80.121094 423.808594 79.65625 L 453.082031 70.742188 L 471.519531 95.152344 C 472.480469 96.414062 473.785156 97.367188 475.289062 97.886719 L 504.210938 107.894531 L 504.808594 138.480469 C 504.839844 140.0625 505.335938 141.601562 506.25 142.894531 L 523.722656 168 L 506.234375 193.113281 C 505.328125 194.40625 504.832031 195.945312 504.800781 197.527344 L 504.203125 228.113281 L 475.28125 238.121094 C 473.777344 238.640625 472.472656 239.59375 471.511719 240.855469 L 453.074219 265.265625 L 423.800781 256.34375 C 423.042969 256.121094 422.257812 256 421.472656 256 C 420.6875 256 419.90625 256.121094 419.136719 256.34375 L 389.867188 265.257812 L 371.425781 240.847656 C 370.464844 239.585938 369.160156 238.632812 367.65625 238.113281 L 338.738281 228.105469 L 338.136719 197.519531 C 338.105469 195.9375 337.609375 194.398438 336.699219 193.105469 L 319.226562 168 Z M 220.328125 172.121094 C 221.847656 169.585938 221.847656 166.425781 220.328125 163.886719 L 203.601562 136 L 322.007812 136 L 302.90625 163.433594 C 300.992188 166.175781 300.992188 169.824219 302.90625 172.574219 L 322.015625 200 L 203.601562 200 Z M 220.328125 172.121094 " fill-opacity="1" fill-rule="nonzero"/><path fill="#08946c" d="M 413.472656 200 C 413.59375 200 413.714844 200 413.832031 199.992188 C 416.082031 199.886719 418.175781 198.847656 419.617188 197.121094 L 459.617188 149.121094 L 447.328125 138.878906 L 412.9375 180.152344 L 395.128906 162.34375 L 383.816406 173.65625 L 407.816406 197.65625 C 409.320312 199.160156 411.351562 200 413.472656 200 Z M 413.472656 200 " fill-opacity="1" fill-rule="nonzero"/><path fill="#08946c" d="M 461.257812 468.238281 C 461.433594 472.382812 461.601562 476.390625 461.714844 480.222656 L 477.707031 479.777344 C 477.601562 475.878906 477.425781 471.785156 477.242188 467.566406 C 476.144531 441.65625 474.769531 409.414062 488.664062 389.863281 C 488.746094 389.761719 488.746094 389.761719 517.792969 348.71875 C 519.097656 346.871094 521.234375 345.769531 523.488281 345.769531 C 527 345.769531 528.816406 348.089844 529.433594 349.078125 C 530.050781 350.078125 531.3125 352.734375 529.96875 355.449219 L 512.832031 385.089844 C 510.722656 388.734375 509.609375 392.886719 509.609375 397.105469 L 525.609375 397.105469 C 525.609375 395.695312 525.976562 394.3125 526.679688 393.105469 L 528.378906 390.167969 L 564.503906 378.113281 L 564.761719 378.238281 L 564.890625 377.984375 L 586.699219 370.703125 C 590.480469 369.289062 593.867188 366.910156 596.488281 363.855469 L 633.097656 321.144531 C 634.410156 319.617188 636.3125 318.710938 638.320312 318.664062 C 640.488281 318.65625 642.304688 319.441406 643.769531 320.992188 C 645.984375 323.328125 646.050781 327.375 643.929688 330.414062 L 599.417969 394.007812 C 598.296875 395.601562 597 397.046875 595.554688 398.320312 L 565.320312 424.777344 C 554.777344 434.007812 530.410156 457.792969 531.945312 479.257812 L 547.90625 478.105469 C 547.066406 466.425781 562.433594 448.558594 575.855469 436.816406 L 606.089844 410.359375 C 608.496094 408.246094 610.65625 405.847656 612.519531 403.191406 L 657.035156 339.59375 C 663.539062 330.304688 662.847656 317.855469 655.386719 309.992188 C 650.832031 305.183594 644.503906 302.640625 637.929688 302.671875 C 631.394531 302.839844 625.203125 305.777344 620.945312 310.734375 L 618.570312 313.503906 L 619.113281 310.230469 C 620.097656 304.351562 618.449219 298.375 614.59375 293.824219 C 610.738281 289.28125 605.113281 286.664062 599.152344 286.664062 C 589.847656 286.664062 581.777344 292.96875 579.511719 301.992188 L 574.050781 323.871094 L 553.53125 364.910156 L 540.433594 369.28125 L 544.035156 363.039062 C 547.625 355.863281 547.25 347.503906 543.035156 340.679688 C 538.816406 333.855469 531.503906 329.777344 523.480469 329.777344 C 516.035156 329.777344 509.015625 333.40625 504.722656 339.480469 L 475.738281 380.433594 C 458.554688 404.617188 460.050781 439.894531 461.257812 468.238281 Z M 588.761719 330.230469 C 589.023438 329.710938 589.226562 329.160156 589.371094 328.59375 L 595.050781 305.863281 C 595.519531 303.976562 597.21875 302.65625 599.160156 302.65625 C 600.867188 302.65625 601.921875 303.59375 602.394531 304.160156 C 602.875 304.71875 603.625 305.910156 603.34375 307.59375 L 598.449219 336.992188 L 584.34375 353.441406 C 583.472656 354.464844 582.335938 355.257812 581.351562 355.625 L 575.007812 357.734375 Z M 588.761719 330.230469 " fill-opacity="1" fill-rule="nonzero"/><path fill="#08946c" d="M 319.722656 345.769531 C 321.984375 345.769531 324.121094 346.871094 325.425781 348.71875 C 325.425781 348.71875 353.890625 388.9375 354.425781 389.695312 C 368.441406 409.425781 367.074219 441.671875 365.96875 467.574219 C 365.792969 471.792969 365.617188 475.878906 365.511719 479.777344 L 381.503906 480.222656 C 381.609375 476.398438 381.785156 472.390625 381.960938 468.257812 C 383.160156 439.902344 384.65625 404.625 367.464844 380.425781 L 367.441406 380.441406 C 365.890625 378.175781 360.28125 370.265625 338.488281 339.464844 C 334.183594 333.382812 327.167969 329.761719 319.722656 329.761719 C 311.699219 329.761719 304.386719 333.832031 300.167969 340.65625 C 295.953125 347.488281 295.578125 355.839844 299.394531 363.449219 L 302.753906 369.257812 L 289.679688 364.894531 L 269.160156 323.855469 L 263.6875 301.976562 C 261.425781 292.953125 253.351562 286.648438 244.058594 286.648438 C 238.089844 286.648438 232.464844 289.257812 228.609375 293.808594 C 224.761719 298.351562 223.113281 304.335938 224.097656 310.207031 L 224.640625 313.480469 L 222.265625 310.71875 C 218.007812 305.761719 211.816406 302.824219 205.28125 302.65625 C 198.832031 302.625 192.386719 305.160156 187.824219 309.976562 C 180.371094 317.847656 179.679688 330.296875 186.175781 339.574219 L 230.699219 403.175781 C 232.546875 405.816406 234.707031 408.222656 237.121094 410.34375 L 267.351562 436.800781 C 280.769531 448.542969 296.144531 466.398438 295.304688 478.089844 L 311.265625 479.238281 C 312.800781 457.777344 288.441406 433.992188 277.898438 424.761719 L 247.664062 398.304688 C 246.21875 397.03125 244.921875 395.59375 243.808594 394.007812 L 199.28125 330.398438 C 197.160156 327.367188 197.226562 323.3125 199.441406 320.984375 C 200.90625 319.441406 202.898438 318.632812 204.890625 318.65625 C 206.90625 318.703125 208.808594 319.609375 210.121094 321.136719 L 246.730469 363.839844 C 249.351562 366.902344 252.738281 369.28125 256.800781 370.800781 L 278.328125 377.984375 L 278.457031 378.230469 L 278.707031 378.105469 L 314.839844 390.160156 L 316.539062 393.105469 C 316.960938 393.847656 317.609375 396.566406 317.609375 398.65625 L 333.609375 398.65625 C 333.609375 395.6875 332.929688 389.496094 330.386719 385.097656 L 313.472656 355.871094 C 311.898438 352.726562 313.160156 350.070312 313.777344 349.070312 C 314.394531 348.078125 316.210938 345.769531 319.722656 345.769531 Z M 262.136719 355.71875 C 260.875 355.238281 259.746094 354.457031 258.875 353.433594 L 244.769531 336.984375 L 239.875 307.585938 C 239.59375 305.902344 240.34375 304.71875 240.816406 304.160156 C 241.289062 303.601562 242.335938 302.65625 244.050781 302.65625 C 246 302.65625 247.6875 303.976562 248.160156 305.863281 L 253.839844 328.601562 C 253.984375 329.167969 254.183594 329.710938 254.449219 330.238281 L 268.210938 357.753906 Z M 262.136719 355.71875 " fill-opacity="1" fill-rule="nonzero"/><path fill="#08946c" d="M 409.867188 319.464844 C 404.832031 319.078125 399.753906 318.441406 394.785156 317.558594 L 392 333.320312 C 397.488281 334.289062 403.089844 334.992188 408.648438 335.417969 Z M 409.867188 319.464844 " fill-opacity="1" fill-rule="nonzero"/><path fill="#08946c" d="M 440.21875 318.777344 C 435.21875 319.390625 430.113281 319.761719 425.074219 319.871094 L 425.433594 335.871094 C 431.007812 335.742188 436.640625 335.335938 442.175781 334.65625 Z M 440.21875 318.777344 " fill-opacity="1" fill-rule="nonzero"/><path fill="#08946c" d="M 379.984375 314.175781 C 375.152344 312.808594 370.304688 311.175781 365.59375 309.3125 L 359.730469 324.199219 C 364.9375 326.257812 370.289062 328.0625 375.632812 329.574219 Z M 379.984375 314.175781 " fill-opacity="1" fill-rule="nonzero"/><path fill="#08946c" d="M 455.167969 316.175781 L 458.699219 331.777344 C 464.136719 330.542969 469.578125 329.023438 474.875 327.238281 L 469.777344 312.070312 C 465.007812 313.679688 460.089844 315.054688 455.167969 316.175781 Z M 455.167969 316.175781 " fill-opacity="1" fill-rule="nonzero"/><path fill="#08946c" d="M 351.777344 303.03125 C 347.289062 300.710938 342.875 298.136719 338.648438 295.390625 L 329.921875 308.800781 C 334.585938 311.839844 339.464844 314.679688 344.433594 317.238281 Z M 351.777344 303.03125 " fill-opacity="1" fill-rule="nonzero"/><path fill="#08946c" d="M 497.441406 299.585938 C 493.066406 302.113281 488.511719 304.449219 483.929688 306.519531 L 490.511719 321.105469 C 495.585938 318.816406 500.609375 316.230469 505.441406 313.441406 Z M 497.441406 299.585938 " fill-opacity="1" fill-rule="nonzero"/><path fill="#08946c" d="M 326.351562 286.480469 C 322.425781 283.320312 318.601562 279.921875 315 276.382812 L 303.785156 287.800781 C 307.761719 291.710938 311.984375 295.464844 316.328125 298.953125 Z M 326.351562 286.480469 " fill-opacity="1" fill-rule="nonzero"/><path fill="#08946c" d="M 522.074219 281.855469 C 518.289062 285.199219 514.296875 288.382812 510.203125 291.335938 L 519.554688 304.320312 C 524.074219 301.0625 528.488281 297.542969 532.671875 293.847656 Z M 522.074219 281.855469 " fill-opacity="1" fill-rule="nonzero"/><path fill="#08946c" d="M 282.3125 262.039062 C 285.433594 266.65625 288.832031 271.167969 292.410156 275.457031 L 304.699219 265.207031 C 301.464844 261.328125 298.394531 257.246094 295.5625 253.070312 Z M 282.3125 262.039062 " fill-opacity="1" fill-rule="nonzero"/><path fill="#08946c" d="M 532.945312 271.246094 L 544.679688 282.128906 C 548.480469 278.023438 552.113281 273.703125 555.464844 269.273438 L 542.722656 259.609375 C 539.679688 263.617188 536.394531 267.535156 532.945312 271.246094 Z M 532.945312 271.246094 " fill-opacity="1" fill-rule="nonzero"/><path fill="#08946c" d="M 266.363281 232.542969 C 268.519531 237.710938 270.953125 242.800781 273.601562 247.695312 L 287.671875 240.089844 C 285.28125 235.664062 283.074219 231.054688 281.128906 226.382812 Z M 266.363281 232.542969 " fill-opacity="1" fill-rule="nonzero"/><path fill="#08946c" d="M 572.960938 240.648438 L 558.546875 233.710938 C 556.351562 238.273438 553.914062 242.761719 551.289062 247.054688 L 564.9375 255.398438 C 567.832031 250.648438 570.539062 245.679688 572.960938 240.648438 Z M 572.960938 240.648438 " fill-opacity="1" fill-rule="nonzero"/><path fill="#08946c" d="M 273.875 97.585938 L 288.394531 104.304688 C 290.496094 99.742188 292.882812 95.222656 295.457031 90.863281 L 281.679688 82.71875 C 278.839844 87.535156 276.21875 92.535156 273.875 97.585938 Z M 273.875 97.585938 " fill-opacity="1" fill-rule="nonzero"/><path fill="#08946c" d="M 580.554688 101.296875 C 578.335938 96.191406 575.824219 91.128906 573.105469 86.257812 L 559.136719 94.054688 C 561.601562 98.472656 563.875 103.046875 565.882812 107.671875 Z M 580.554688 101.296875 " fill-opacity="1" fill-rule="nonzero"/><path fill="#08946c" d="M 313.433594 66.414062 L 301.5625 55.695312 C 297.816406 59.839844 294.25 64.222656 290.953125 68.710938 L 303.839844 78.191406 C 306.824219 74.128906 310.050781 70.167969 313.433594 66.414062 Z M 313.433594 66.414062 " fill-opacity="1" fill-rule="nonzero"/><path fill="#08946c" d="M 564.175781 72.023438 C 560.992188 67.464844 557.53125 63 553.898438 58.761719 L 541.753906 69.175781 C 545.050781 73.015625 548.175781 77.054688 551.066406 81.183594 Z M 564.175781 72.023438 " fill-opacity="1" fill-rule="nonzero"/><path fill="#08946c" d="M 324.160156 55.648438 C 327.898438 52.257812 331.847656 49.007812 335.90625 46 L 326.378906 33.144531 C 321.898438 36.464844 317.539062 40.046875 313.410156 43.800781 Z M 324.160156 55.648438 " fill-opacity="1" fill-rule="nonzero"/><path fill="#08946c" d="M 519.800781 48.214844 C 523.769531 51.304688 527.632812 54.648438 531.296875 58.144531 L 542.34375 46.574219 C 538.296875 42.710938 534.023438 39.023438 529.640625 35.609375 Z M 519.800781 48.214844 " fill-opacity="1" fill-rule="nonzero"/><path fill="#08946c" d="M 361.960938 30.433594 L 355.160156 15.953125 C 350.128906 18.3125 345.136719 20.960938 340.34375 23.832031 L 348.554688 37.566406 C 352.890625 34.96875 357.402344 32.574219 361.960938 30.433594 Z M 361.960938 30.433594 " fill-opacity="1" fill-rule="nonzero"/><path fill="#08946c" d="M 494.144531 32.03125 C 498.640625 34.273438 503.097656 36.777344 507.371094 39.472656 L 515.90625 25.945312 C 511.175781 22.960938 506.257812 20.191406 501.273438 17.703125 Z M 494.144531 32.03125 " fill-opacity="1" fill-rule="nonzero"/><path fill="#08946c" d="M 376.015625 24.679688 C 380.753906 23.015625 385.65625 21.566406 390.570312 20.375 L 386.808594 4.824219 C 381.371094 6.136719 375.953125 7.742188 370.707031 9.585938 Z M 376.015625 24.679688 " fill-opacity="1" fill-rule="nonzero"/><path fill="#08946c" d="M 485.890625 10.984375 C 480.65625 9.007812 475.273438 7.273438 469.898438 5.839844 L 465.777344 21.304688 C 470.632812 22.59375 475.488281 24.160156 480.21875 25.953125 Z M 485.890625 10.984375 " fill-opacity="1" fill-rule="nonzero"/><path fill="#08946c" d="M 405.496094 17.558594 C 410.480469 16.871094 415.570312 16.433594 420.625 16.246094 L 420.035156 0.257812 C 414.449219 0.464844 408.816406 0.953125 403.304688 1.710938 Z M 405.496094 17.558594 " fill-opacity="1" fill-rule="nonzero"/><path fill="#08946c" d="M 435.808594 16.433594 C 440.882812 16.753906 445.96875 17.3125 450.921875 18.121094 L 453.472656 2.328125 C 448.007812 1.441406 442.394531 0.816406 436.800781 0.464844 Z M 435.808594 16.433594 " fill-opacity="1" fill-rule="nonzero"/></svg>