<svg xmlns="http://www.w3.org/2000/svg" xmlns:xlink="http://www.w3.org/1999/xlink" width="1080" zoomAndPan="magnify" viewBox="0 0 810 479.999983" height="640" preserveAspectRatio="xMidYMid meet" version="1.0"><defs><clipPath id="df312ef50a"><path d="M 197.121094 0 L 663.621094 0 L 663.621094 480 L 197.121094 480 Z M 197.121094 0 " clip-rule="nonzero"/></clipPath></defs><g clip-path="url(#df312ef50a)"><path fill="#08946c" d="M 508.363281 275.425781 C 505.097656 268.847656 498.375 264.273438 490.539062 264.273438 L 468.402344 264.273438 C 457.40625 264.273438 448.457031 273.214844 448.457031 284.222656 C 448.457031 295.226562 457.40625 304.167969 468.402344 304.167969 L 476.140625 304.167969 C 461.355469 312.539062 444.320312 317.375 426.160156 317.375 C 383.503906 317.375 346.945312 290.992188 331.785156 253.714844 C 330.796875 214.683594 336.300781 176.363281 343.511719 172.578125 C 347.4375 171.171875 365.03125 171.28125 380.503906 171.40625 C 419.167969 171.644531 471.03125 172.039062 504.824219 158.09375 C 517.699219 187.824219 520.789062 237.261719 521.421875 251.289062 C 518.148438 259.960938 513.75 268.0625 508.363281 275.425781 Z M 486.539062 337.65625 C 486.351562 339.601562 486.132812 341.65625 485.90625 343.738281 C 485.632812 346.214844 485.316406 348.804688 484.980469 351.457031 C 484.695312 353.652344 484.402344 355.878906 484.074219 358.179688 C 483.667969 361.027344 483.191406 364 482.703125 366.992188 C 482.320312 369.347656 481.945312 371.683594 481.503906 374.117188 C 480.917969 377.398438 480.214844 380.800781 479.515625 384.195312 C 479.042969 386.519531 478.609375 388.796875 478.078125 391.160156 C 477.121094 395.441406 476.003906 399.816406 474.863281 404.199219 C 474.449219 405.78125 474.109375 407.324219 473.671875 408.917969 C 472.035156 414.847656 470.203125 420.835938 468.183594 426.820312 C 467.578125 428.609375 466.84375 430.378906 466.203125 432.167969 C 464.679688 436.40625 463.125 440.636719 461.386719 444.832031 C 460.457031 447.078125 459.394531 449.277344 458.394531 451.5 C 457.15625 454.269531 455.851562 457.003906 454.503906 459.726562 L 446.425781 459.726562 L 437.789062 384.027344 C 443.789062 380.082031 447.765625 373.316406 447.765625 365.605469 C 447.765625 353.425781 437.890625 343.550781 425.710938 343.550781 C 413.539062 343.550781 403.664062 353.425781 403.664062 365.605469 C 403.664062 373.65625 408.027344 380.628906 414.476562 384.476562 L 405.890625 459.726562 L 396.929688 459.726562 C 395.582031 457.003906 394.277344 454.269531 393.035156 451.5 C 392.039062 449.277344 390.976562 447.078125 390.046875 444.832031 C 388.304688 440.636719 386.753906 436.40625 385.230469 432.167969 C 384.589844 430.378906 383.855469 428.609375 383.25 426.820312 C 381.230469 420.839844 379.398438 414.855469 377.765625 408.929688 C 377.3125 407.292969 376.96875 405.707031 376.546875 404.085938 C 375.410156 399.738281 374.304688 395.40625 373.355469 391.160156 C 372.824219 388.796875 372.390625 386.519531 371.914062 384.195312 C 371.214844 380.800781 370.515625 377.398438 369.925781 374.117188 C 369.488281 371.683594 369.113281 369.347656 368.726562 366.992188 C 368.242188 364.003906 367.761719 361.035156 367.359375 358.1875 C 367.03125 355.871094 366.730469 353.625 366.449219 351.417969 C 366.117188 348.792969 365.804688 346.226562 365.535156 343.777344 C 365.304688 341.679688 365.078125 339.605469 364.890625 337.644531 C 364.804688 336.785156 364.746094 336.019531 364.671875 335.1875 C 370.480469 332.933594 376.652344 331.164062 383.007812 329.65625 C 396.449219 334.757812 410.953125 337.675781 426.160156 337.675781 C 441.230469 337.675781 455.613281 334.820312 468.941406 329.808594 C 475.105469 331.289062 481.113281 333 486.761719 335.1875 C 486.6875 336.019531 486.625 336.792969 486.539062 337.65625 Z M 313.257812 205.375 C 302.300781 164.910156 307.140625 130.136719 341.382812 95.894531 C 379.277344 58.003906 442.109375 55.726562 484.417969 73.503906 C 527.535156 91.617188 523.792969 124.597656 525.433594 126.933594 C 527.082031 129.269531 543.644531 134.269531 545.773438 147.132812 C 545.773438 147.132812 545.773438 147.132812 545.773438 147.140625 C 549.449219 169.125 546.84375 193.828125 538.980469 216.757812 C 536.003906 191.5625 530.03125 159.585938 518.121094 139.46875 C 516.230469 136.269531 512.851562 134.484375 509.375 134.484375 C 507.679688 134.484375 505.953125 134.90625 504.378906 135.808594 C 476.238281 151.773438 418.71875 151.417969 380.652344 151.105469 C 356.546875 150.933594 343.671875 150.964844 336.695312 153.457031 C 322.511719 158.519531 316.050781 181.316406 313.257812 205.375 Z M 605.167969 134.539062 C 584.605469 57.207031 514.183594 -0.0234375 430.453125 -0.0234375 C 346.738281 -0.0234375 276.316406 57.207031 255.753906 134.539062 C 223.273438 136.597656 197.402344 163.414062 197.402344 196.402344 C 197.402344 230.722656 225.324219 258.652344 259.648438 258.652344 L 269.800781 258.652344 L 269.800781 180.9375 C 269.800781 92.351562 341.875 20.277344 430.453125 20.277344 C 519.046875 20.277344 591.121094 92.351562 591.121094 180.9375 L 591.121094 238.140625 L 552.949219 276.582031 L 531.789062 276.582031 C 534.476562 271.9375 536.761719 267.046875 538.828125 262.042969 C 539.324219 261.546875 539.855469 261.078125 540.246094 260.46875 C 562.320312 226.347656 572.113281 181.652344 565.8125 143.804688 C 562.742188 125.378906 553.203125 117.144531 544.492188 113.507812 C 543.460938 89.8125 524.070312 67.957031 492.175781 54.746094 C 443.554688 34.613281 371.214844 37.347656 327.027344 81.539062 C 268.914062 139.648438 285.675781 201.996094 312.453125 260.714844 C 312.636719 261.117188 312.925781 261.433594 313.152344 261.800781 C 322.242188 283.898438 337.601562 302.75 357.035156 316.140625 L 349.726562 319.445312 L 343.25 322.375 L 343.28125 322.832031 C 260.289062 365.347656 256.675781 465.28125 256.574219 469.628906 L 256.320312 480.023438 L 595.113281 480.023438 L 594.863281 469.628906 C 594.757812 465.28125 591.144531 365.347656 508.148438 322.832031 L 508.183594 322.375 L 501.707031 319.445312 L 494.835938 316.339844 C 502.988281 310.753906 510.429688 304.230469 517 296.882812 L 561.410156 296.882812 L 599.359375 258.652344 L 601.273438 258.652344 C 635.597656 258.652344 663.527344 230.722656 663.527344 196.402344 C 663.527344 163.414062 637.648438 136.597656 605.167969 134.539062 " fill-opacity="1" fill-rule="nonzero"/></g></svg>