<svg xmlns="http://www.w3.org/2000/svg" xmlns:xlink="http://www.w3.org/1999/xlink" width="1080" zoomAndPan="magnify" viewBox="0 0 810 479.999983" height="640" preserveAspectRatio="xMidYMid meet" version="1.0"><path fill="#08946c" d="M 444.742188 283.214844 C 444.742188 284.605469 444.671875 285.992188 444.535156 287.375 C 444.398438 288.757812 444.195312 290.132812 443.925781 291.496094 C 443.652344 292.859375 443.316406 294.207031 442.914062 295.535156 C 442.507812 296.867188 442.042969 298.171875 441.507812 299.457031 C 440.976562 300.742188 440.382812 301.996094 439.730469 303.222656 C 439.074219 304.449219 438.359375 305.640625 437.585938 306.796875 C 436.816406 307.953125 435.988281 309.066406 435.105469 310.140625 C 434.222656 311.214844 433.292969 312.246094 432.308594 313.226562 C 431.324219 314.210938 430.296875 315.144531 429.222656 316.023438 C 428.148438 316.90625 427.03125 317.734375 425.878906 318.507812 C 424.722656 319.277344 423.53125 319.992188 422.304688 320.648438 C 421.078125 321.300781 419.824219 321.894531 418.539062 322.429688 C 417.253906 322.960938 415.949219 323.429688 414.617188 323.832031 C 413.289062 324.234375 411.941406 324.574219 410.578125 324.84375 C 409.214844 325.113281 407.839844 325.320312 406.457031 325.453125 C 405.074219 325.589844 403.6875 325.660156 402.296875 325.660156 C 400.90625 325.660156 399.519531 325.589844 398.136719 325.453125 C 396.753906 325.320312 395.378906 325.113281 394.015625 324.84375 C 392.652344 324.574219 391.304688 324.234375 389.976562 323.832031 C 388.644531 323.429688 387.339844 322.960938 386.054688 322.429688 C 384.769531 321.894531 383.515625 321.300781 382.289062 320.648438 C 381.0625 319.992188 379.871094 319.277344 378.714844 318.507812 C 377.558594 317.734375 376.445312 316.90625 375.371094 316.023438 C 374.296875 315.144531 373.265625 314.210938 372.285156 313.226562 C 371.300781 312.246094 370.367188 311.214844 369.488281 310.140625 C 368.605469 309.066406 367.777344 307.953125 367.007812 306.796875 C 366.234375 305.640625 365.519531 304.449219 364.863281 303.222656 C 364.210938 301.996094 363.617188 300.742188 363.082031 299.457031 C 362.550781 298.171875 362.085938 296.867188 361.679688 295.535156 C 361.277344 294.207031 360.941406 292.859375 360.667969 291.496094 C 360.398438 290.132812 360.195312 288.757812 360.058594 287.375 C 359.921875 285.992188 359.851562 284.605469 359.851562 283.214844 C 359.851562 281.824219 359.921875 280.4375 360.058594 279.054688 C 360.195312 277.671875 360.398438 276.296875 360.667969 274.933594 C 360.941406 273.570312 361.277344 272.226562 361.679688 270.894531 C 362.085938 269.5625 362.550781 268.257812 363.082031 266.972656 C 363.617188 265.6875 364.210938 264.433594 364.863281 263.207031 C 365.519531 261.980469 366.234375 260.789062 367.007812 259.636719 C 367.777344 258.480469 368.605469 257.363281 369.488281 256.289062 C 370.367188 255.214844 371.300781 254.1875 372.285156 253.203125 C 373.265625 252.21875 374.296875 251.289062 375.371094 250.40625 C 376.445312 249.523438 377.558594 248.695312 378.714844 247.925781 C 379.871094 247.152344 381.0625 246.4375 382.289062 245.785156 C 383.515625 245.128906 384.769531 244.535156 386.054688 244.003906 C 387.339844 243.46875 388.644531 243.003906 389.976562 242.597656 C 391.304688 242.195312 392.652344 241.859375 394.015625 241.585938 C 395.378906 241.316406 396.753906 241.113281 398.136719 240.976562 C 399.519531 240.839844 400.90625 240.773438 402.296875 240.773438 C 403.6875 240.773438 405.074219 240.839844 406.457031 240.976562 C 407.839844 241.113281 409.214844 241.316406 410.578125 241.585938 C 411.941406 241.859375 413.289062 242.195312 414.617188 242.597656 C 415.949219 243.003906 417.253906 243.46875 418.539062 244.003906 C 419.824219 244.535156 421.078125 245.128906 422.304688 245.785156 C 423.53125 246.4375 424.722656 247.152344 425.878906 247.925781 C 427.03125 248.695312 428.148438 249.523438 429.222656 250.40625 C 430.296875 251.289062 431.324219 252.21875 432.308594 253.203125 C 433.292969 254.1875 434.222656 255.214844 435.105469 256.289062 C 435.988281 257.363281 436.816406 258.480469 437.585938 259.636719 C 438.359375 260.789062 439.074219 261.980469 439.730469 263.207031 C 440.382812 264.433594 440.976562 265.6875 441.507812 266.972656 C 442.042969 268.257812 442.507812 269.5625 442.914062 270.894531 C 443.316406 272.226562 443.652344 273.570312 443.925781 274.933594 C 444.195312 276.296875 444.398438 277.671875 444.535156 279.054688 C 444.671875 280.4375 444.742188 281.824219 444.742188 283.214844 Z M 444.742188 283.214844 " fill-opacity="1" fill-rule="nonzero"/><path fill="#08946c" d="M 232.523438 302.507812 L 209.371094 325.660156 L 278.824219 395.113281 L 332.84375 371.960938 L 332.84375 480 L 471.75 480 L 471.75 371.960938 L 525.769531 395.113281 L 595.222656 325.660156 L 572.070312 302.507812 L 518.050781 348.808594 L 478.292969 328.921875 C 473.949219 326.75 469.347656 325.660156 464.488281 325.660156 L 402.296875 325.660156 L 425.449219 402.828125 L 402.296875 441.414062 L 379.144531 402.828125 L 402.296875 325.660156 L 340.152344 325.660156 C 335.296875 325.65625 330.695312 326.742188 326.351562 328.914062 L 286.542969 348.808594 Z M 232.523438 302.507812 " fill-opacity="1" fill-rule="nonzero"/><path fill="#08946c" d="M 402.296875 16.976562 C 403.558594 16.976562 404.820312 17.039062 406.078125 17.164062 C 407.335938 17.289062 408.585938 17.472656 409.824219 17.71875 C 411.0625 17.964844 412.289062 18.273438 413.496094 18.640625 C 414.707031 19.003906 415.894531 19.429688 417.0625 19.914062 C 418.230469 20.398438 419.371094 20.9375 420.484375 21.535156 C 421.601562 22.128906 422.683594 22.777344 423.734375 23.480469 C 424.785156 24.183594 425.796875 24.933594 426.773438 25.734375 C 427.75 26.539062 428.6875 27.386719 429.582031 28.277344 C 430.472656 29.171875 431.320312 30.109375 432.125 31.085938 C 432.925781 32.0625 433.675781 33.074219 434.378906 34.125 C 435.082031 35.175781 435.730469 36.257812 436.324219 37.375 C 436.921875 38.488281 437.460938 39.628906 437.945312 40.796875 C 438.429688 41.964844 438.855469 43.152344 439.21875 44.363281 C 439.585938 45.570312 439.894531 46.796875 440.140625 48.035156 C 440.386719 49.273438 440.570312 50.523438 440.695312 51.78125 C 440.820312 53.039062 440.882812 54.300781 440.882812 55.5625 C 440.882812 56.828125 440.820312 58.085938 440.695312 59.34375 C 440.570312 60.601562 440.386719 61.851562 440.140625 63.089844 C 439.894531 64.328125 439.585938 65.554688 439.21875 66.761719 C 438.855469 67.972656 438.429688 69.160156 437.945312 70.328125 C 437.460938 71.496094 436.921875 72.636719 436.324219 73.75 C 435.730469 74.867188 435.082031 75.949219 434.378906 77 C 433.675781 78.050781 432.925781 79.0625 432.125 80.039062 C 431.320312 81.019531 430.472656 81.953125 429.582031 82.847656 C 428.6875 83.738281 427.75 84.585938 426.773438 85.390625 C 425.796875 86.191406 424.785156 86.941406 423.734375 87.644531 C 422.683594 88.347656 421.601562 88.996094 420.484375 89.589844 C 419.371094 90.1875 418.230469 90.726562 417.0625 91.210938 C 415.894531 91.695312 414.707031 92.121094 413.496094 92.488281 C 412.289062 92.851562 411.0625 93.160156 409.824219 93.40625 C 408.585938 93.652344 407.335938 93.839844 406.078125 93.960938 C 404.820312 94.085938 403.558594 94.148438 402.296875 94.148438 C 401.789062 94.148438 401.289062 94.199219 400.792969 94.296875 C 400.292969 94.394531 399.8125 94.542969 399.34375 94.734375 C 398.875 94.929688 398.429688 95.167969 398.007812 95.449219 C 397.589844 95.730469 397.199219 96.050781 396.839844 96.40625 C 396.480469 96.765625 396.160156 97.15625 395.878906 97.578125 C 395.597656 98 395.359375 98.445312 395.167969 98.910156 C 394.972656 99.378906 394.828125 99.863281 394.726562 100.359375 C 394.628906 100.855469 394.578125 101.359375 394.578125 101.863281 L 394.578125 148.167969 L 410.015625 148.167969 L 410.015625 109.035156 C 411.710938 108.789062 413.394531 108.464844 415.058594 108.058594 C 416.726562 107.652344 418.371094 107.167969 419.992188 106.609375 C 421.613281 106.046875 423.203125 105.410156 424.761719 104.695312 C 426.320312 103.980469 427.84375 103.195312 429.328125 102.335938 C 430.8125 101.480469 432.253906 100.550781 433.652344 99.558594 C 435.046875 98.5625 436.394531 97.5 437.691406 96.378906 C 438.988281 95.253906 440.226562 94.070312 441.410156 92.828125 C 442.59375 91.585938 443.714844 90.292969 444.773438 88.941406 C 445.832031 87.59375 446.828125 86.199219 447.753906 84.753906 C 448.679688 83.3125 449.535156 81.828125 450.320312 80.300781 C 451.105469 78.777344 451.816406 77.21875 452.453125 75.625 C 453.089844 74.035156 453.652344 72.414062 454.132812 70.769531 C 454.617188 69.121094 455.019531 67.457031 455.34375 65.773438 C 455.667969 64.089844 455.910156 62.390625 456.074219 60.683594 C 456.234375 58.976562 456.316406 57.265625 456.316406 55.550781 C 456.316406 53.835938 456.234375 52.125 456.070312 50.417969 C 455.90625 48.707031 455.660156 47.011719 455.335938 45.328125 C 455.011719 43.644531 454.605469 41.980469 454.125 40.335938 C 453.640625 38.6875 453.078125 37.070312 452.441406 35.476562 C 451.804688 33.886719 451.089844 32.328125 450.304688 30.800781 C 449.519531 29.277344 448.660156 27.792969 447.734375 26.351562 C 446.804688 24.910156 445.8125 23.515625 444.75 22.164062 C 443.691406 20.816406 442.566406 19.523438 441.382812 18.28125 C 440.199219 17.042969 438.960938 15.859375 437.664062 14.734375 C 436.367188 13.613281 435.019531 12.554688 433.621094 11.558594 C 432.222656 10.566406 430.78125 9.640625 429.296875 8.78125 C 427.8125 7.925781 426.289062 7.140625 424.730469 6.425781 C 423.167969 5.714844 421.578125 5.078125 419.957031 4.519531 C 418.335938 3.957031 416.691406 3.472656 415.023438 3.070312 C 413.359375 2.667969 411.675781 2.34375 409.976562 2.097656 C 408.28125 1.855469 406.574219 1.691406 404.859375 1.609375 C 403.148438 1.527344 401.433594 1.527344 399.71875 1.609375 C 398.007812 1.691406 396.300781 1.855469 394.605469 2.101562 C 392.90625 2.34375 391.222656 2.667969 389.558594 3.074219 C 387.890625 3.476562 386.246094 3.960938 384.625 4.523438 C 383.003906 5.082031 381.414062 5.71875 379.855469 6.433594 C 378.292969 7.144531 376.769531 7.929688 375.285156 8.789062 C 373.800781 9.644531 372.359375 10.570312 370.960938 11.566406 C 369.5625 12.5625 368.21875 13.621094 366.921875 14.746094 C 365.625 15.867188 364.386719 17.050781 363.203125 18.292969 C 362.015625 19.53125 360.894531 20.828125 359.835938 22.175781 C 358.773438 23.523438 357.78125 24.917969 356.855469 26.363281 C 355.925781 27.804688 355.070312 29.289062 354.285156 30.8125 C 353.496094 32.339844 352.785156 33.898438 352.148438 35.488281 C 351.511719 37.082031 350.949219 38.699219 350.464844 40.347656 C 349.984375 41.992188 349.578125 43.65625 349.253906 45.339844 C 348.929688 47.023438 348.6875 48.722656 348.523438 50.429688 C 348.359375 52.136719 348.277344 53.847656 348.277344 55.5625 L 363.710938 55.5625 C 363.714844 54.300781 363.777344 53.039062 363.902344 51.78125 C 364.027344 50.523438 364.214844 49.277344 364.460938 48.039062 C 364.707031 46.800781 365.015625 45.574219 365.382812 44.367188 C 365.75 43.160156 366.175781 41.972656 366.660156 40.804688 C 367.144531 39.636719 367.683594 38.496094 368.28125 37.382812 C 368.878906 36.269531 369.527344 35.1875 370.226562 34.136719 C 370.929688 33.085938 371.683594 32.074219 372.484375 31.097656 C 373.285156 30.121094 374.132812 29.1875 375.027344 28.292969 C 375.917969 27.398438 376.855469 26.550781 377.832031 25.75 C 378.808594 24.949219 379.820312 24.195312 380.871094 23.496094 C 381.921875 22.792969 383.003906 22.144531 384.117188 21.546875 C 385.230469 20.953125 386.371094 20.410156 387.539062 19.925781 C 388.703125 19.441406 389.890625 19.015625 391.101562 18.648438 C 392.308594 18.28125 393.535156 17.972656 394.773438 17.726562 C 396.011719 17.480469 397.257812 17.292969 398.515625 17.167969 C 399.773438 17.042969 401.035156 16.980469 402.296875 16.976562 Z M 402.296875 16.976562 " fill-opacity="1" fill-rule="nonzero"/><path fill="#08946c" d="M 394.578125 166.6875 L 410.015625 166.6875 L 410.015625 185.207031 L 394.578125 185.207031 Z M 394.578125 166.6875 " fill-opacity="1" fill-rule="nonzero"/><path fill="#08946c" d="M 564.75 167.890625 C 565.878906 168.675781 567.039062 169.40625 568.238281 170.082031 C 569.4375 170.757812 570.664062 171.375 571.921875 171.9375 C 573.179688 172.496094 574.457031 172.992188 575.761719 173.433594 C 577.066406 173.871094 578.386719 174.246094 579.726562 174.558594 C 581.066406 174.875 582.417969 175.125 583.78125 175.308594 C 585.144531 175.496094 586.511719 175.617188 587.886719 175.671875 C 589.261719 175.726562 590.632812 175.71875 592.007812 175.644531 C 593.382812 175.574219 594.75 175.433594 596.109375 175.230469 C 597.46875 175.027344 598.816406 174.761719 600.152344 174.433594 C 601.488281 174.101562 602.804688 173.710938 604.101562 173.253906 C 605.402344 172.800781 606.675781 172.285156 607.925781 171.710938 C 609.171875 171.132812 610.394531 170.5 611.582031 169.8125 C 612.773438 169.121094 613.925781 168.375 615.046875 167.574219 C 616.164062 166.777344 617.246094 165.925781 618.285156 165.023438 C 619.320312 164.121094 620.316406 163.175781 621.265625 162.179688 C 622.214844 161.183594 623.113281 160.144531 623.964844 159.0625 C 624.816406 157.984375 625.613281 156.863281 626.359375 155.707031 C 627.105469 154.550781 627.792969 153.363281 628.425781 152.144531 C 629.058594 150.921875 629.632812 149.671875 630.148438 148.398438 C 630.664062 147.121094 631.117188 145.824219 631.507812 144.507812 C 631.902344 143.1875 632.230469 141.855469 632.496094 140.503906 C 632.761719 139.15625 632.964844 137.796875 633.101562 136.425781 C 633.238281 135.058594 633.3125 133.6875 633.320312 132.3125 C 633.328125 130.9375 633.269531 129.5625 633.148438 128.191406 C 633.027344 126.824219 632.839844 125.460938 632.589844 124.109375 C 632.339844 122.757812 632.027344 121.417969 631.648438 120.097656 C 631.273438 118.773438 630.832031 117.472656 630.332031 116.191406 C 629.832031 114.910156 629.273438 113.652344 628.65625 112.425781 C 628.035156 111.195312 627.359375 110 626.628906 108.835938 C 625.894531 107.671875 625.109375 106.542969 624.273438 105.453125 C 623.433594 104.363281 622.546875 103.3125 621.609375 102.308594 C 620.671875 101.300781 619.6875 100.339844 618.660156 99.429688 C 617.628906 98.515625 616.5625 97.652344 615.453125 96.839844 C 614.339844 96.027344 613.195312 95.269531 612.015625 94.566406 C 610.832031 93.859375 609.621094 93.214844 608.378906 92.625 C 607.132812 92.035156 605.867188 91.503906 604.574219 91.035156 C 603.28125 90.566406 601.96875 90.160156 600.636719 89.8125 C 599.304688 89.46875 597.960938 89.183594 596.601562 88.96875 C 595.246094 88.75 593.878906 88.59375 592.507812 88.503906 C 591.132812 88.417969 589.761719 88.390625 588.386719 88.433594 C 587.011719 88.472656 585.640625 88.578125 584.277344 88.75 C 582.910156 88.917969 581.558594 89.152344 580.214844 89.449219 C 578.871094 89.75 577.546875 90.109375 576.238281 90.53125 C 574.929688 90.957031 573.644531 91.441406 572.378906 91.984375 C 571.117188 92.53125 569.882812 93.132812 568.675781 93.796875 C 567.46875 94.457031 566.296875 95.175781 565.160156 95.945312 C 564.023438 96.71875 562.921875 97.542969 561.863281 98.421875 C 560.804688 99.296875 559.785156 100.222656 558.8125 101.195312 L 569.757812 112.105469 C 570.421875 111.472656 571.113281 110.871094 571.835938 110.304688 C 572.554688 109.734375 573.300781 109.203125 574.074219 108.707031 C 574.847656 108.210938 575.640625 107.75 576.457031 107.328125 C 577.273438 106.910156 578.105469 106.527344 578.957031 106.1875 C 579.808594 105.84375 580.675781 105.542969 581.558594 105.285156 C 582.4375 105.027344 583.328125 104.8125 584.230469 104.636719 C 585.132812 104.464844 586.039062 104.332031 586.953125 104.246094 C 587.867188 104.15625 588.78125 104.113281 589.699219 104.113281 C 590.617188 104.113281 591.535156 104.15625 592.449219 104.246094 C 593.363281 104.332031 594.269531 104.464844 595.171875 104.636719 C 596.074219 104.8125 596.964844 105.027344 597.84375 105.285156 C 598.726562 105.542969 599.59375 105.84375 600.445312 106.1875 C 601.296875 106.527344 602.128906 106.910156 602.945312 107.328125 C 603.761719 107.75 604.554688 108.210938 605.328125 108.707031 C 606.101562 109.203125 606.847656 109.734375 607.566406 110.304688 C 608.289062 110.871094 608.980469 111.472656 609.644531 112.105469 C 610.300781 112.757812 610.921875 113.441406 611.507812 114.15625 C 612.09375 114.871094 612.644531 115.609375 613.15625 116.378906 C 613.671875 117.148438 614.148438 117.9375 614.582031 118.753906 C 615.019531 119.566406 615.414062 120.402344 615.769531 121.257812 C 616.121094 122.109375 616.433594 122.980469 616.703125 123.863281 C 616.96875 124.746094 617.195312 125.644531 617.375 126.550781 C 617.554688 127.457031 617.691406 128.367188 617.78125 129.289062 C 617.871094 130.207031 617.917969 131.128906 617.917969 132.054688 C 617.917969 132.976562 617.871094 133.898438 617.78125 134.820312 C 617.691406 135.738281 617.554688 136.652344 617.375 137.558594 C 617.195312 138.464844 616.96875 139.359375 616.703125 140.246094 C 616.433594 141.128906 616.121094 142 615.769531 142.851562 C 615.414062 143.707031 615.019531 144.539062 614.582031 145.355469 C 614.148438 146.167969 613.671875 146.960938 613.15625 147.730469 C 612.644531 148.496094 612.09375 149.238281 611.507812 149.953125 C 610.921875 150.667969 610.300781 151.347656 609.644531 152.003906 C 608.980469 152.636719 608.289062 153.238281 607.566406 153.804688 C 606.847656 154.375 606.101562 154.90625 605.328125 155.402344 C 604.554688 155.898438 603.761719 156.359375 602.945312 156.78125 C 602.128906 157.199219 601.296875 157.582031 600.445312 157.921875 C 599.59375 158.265625 598.726562 158.566406 597.84375 158.824219 C 596.964844 159.082031 596.074219 159.300781 595.171875 159.472656 C 594.269531 159.648438 593.363281 159.777344 592.449219 159.867188 C 591.535156 159.953125 590.617188 159.996094 589.699219 159.996094 C 588.78125 159.996094 587.867188 159.953125 586.953125 159.867188 C 586.039062 159.777344 585.132812 159.648438 584.230469 159.472656 C 583.328125 159.300781 582.4375 159.082031 581.558594 158.824219 C 580.675781 158.566406 579.808594 158.265625 578.957031 157.921875 C 578.105469 157.582031 577.269531 157.199219 576.457031 156.78125 C 575.640625 156.359375 574.847656 155.898438 574.074219 155.402344 C 573.300781 154.90625 572.554688 154.375 571.835938 153.804688 C 571.113281 153.238281 570.421875 152.636719 569.757812 152.003906 C 569.398438 151.644531 569.007812 151.324219 568.585938 151.042969 C 568.164062 150.761719 567.722656 150.523438 567.253906 150.332031 C 566.785156 150.136719 566.300781 149.988281 565.804688 149.890625 C 565.308594 149.792969 564.808594 149.742188 564.300781 149.742188 C 563.792969 149.742188 563.292969 149.792969 562.796875 149.890625 C 562.296875 149.988281 561.816406 150.136719 561.347656 150.332031 C 560.878906 150.523438 560.433594 150.761719 560.015625 151.042969 C 559.59375 151.324219 559.203125 151.644531 558.84375 152.003906 L 533.410156 177.40625 L 544.289062 188.296875 Z M 564.75 167.890625 " fill-opacity="1" fill-rule="nonzero"/><path fill="#08946c" d="M 513.101562 197.726562 L 523.261719 187.566406 L 534.175781 198.476562 L 524.015625 208.640625 Z M 513.101562 197.726562 " fill-opacity="1" fill-rule="nonzero"/><path fill="#08946c" d="M 194.976562 152.027344 C 194.324219 151.371094 193.703125 150.6875 193.117188 149.976562 C 192.53125 149.261719 191.980469 148.519531 191.464844 147.753906 C 190.953125 146.984375 190.476562 146.191406 190.042969 145.378906 C 189.605469 144.5625 189.210938 143.730469 188.855469 142.875 C 188.503906 142.019531 188.191406 141.152344 187.921875 140.269531 C 187.652344 139.382812 187.429688 138.488281 187.25 137.582031 C 187.070312 136.675781 186.933594 135.761719 186.84375 134.84375 C 186.753906 133.921875 186.707031 133 186.707031 132.078125 C 186.707031 131.152344 186.753906 130.230469 186.84375 129.3125 C 186.933594 128.390625 187.070312 127.480469 187.25 126.574219 C 187.429688 125.664062 187.652344 124.769531 187.921875 123.886719 C 188.191406 123.003906 188.503906 122.132812 188.855469 121.28125 C 189.210938 120.425781 189.605469 119.589844 190.042969 118.777344 C 190.476562 117.960938 190.953125 117.171875 191.464844 116.402344 C 191.980469 115.632812 192.53125 114.894531 193.117188 114.179688 C 193.703125 113.464844 194.324219 112.78125 194.976562 112.128906 C 195.640625 111.496094 196.335938 110.894531 197.054688 110.324219 C 197.777344 109.757812 198.523438 109.226562 199.296875 108.730469 C 200.070312 108.234375 200.863281 107.773438 201.679688 107.351562 C 202.492188 106.933594 203.328125 106.550781 204.179688 106.210938 C 205.03125 105.867188 205.898438 105.566406 206.78125 105.308594 C 207.660156 105.050781 208.550781 104.835938 209.453125 104.660156 C 210.355469 104.484375 211.261719 104.355469 212.175781 104.269531 C 213.089844 104.179688 214.003906 104.136719 214.921875 104.136719 C 215.839844 104.136719 216.757812 104.179688 217.671875 104.269531 C 218.585938 104.355469 219.492188 104.484375 220.394531 104.660156 C 221.296875 104.835938 222.1875 105.050781 223.066406 105.308594 C 223.949219 105.566406 224.8125 105.867188 225.667969 106.210938 C 226.519531 106.550781 227.351562 106.933594 228.167969 107.351562 C 228.984375 107.773438 229.777344 108.234375 230.550781 108.730469 C 231.320312 109.226562 232.070312 109.757812 232.789062 110.324219 C 233.511719 110.894531 234.203125 111.496094 234.867188 112.128906 C 235.519531 112.78125 236.140625 113.464844 236.726562 114.179688 C 237.3125 114.894531 237.863281 115.636719 238.378906 116.402344 C 238.890625 117.171875 239.363281 117.964844 239.800781 118.777344 C 240.238281 119.59375 240.632812 120.425781 240.984375 121.28125 C 241.339844 122.132812 241.648438 123.003906 241.917969 123.886719 C 242.1875 124.773438 242.410156 125.667969 242.589844 126.574219 C 242.769531 127.480469 242.90625 128.390625 242.996094 129.3125 C 243.085938 130.230469 243.132812 131.152344 243.132812 132.078125 C 243.132812 133 243.085938 133.921875 242.996094 134.84375 C 242.90625 135.761719 242.769531 136.675781 242.589844 137.582031 C 242.410156 138.488281 242.1875 139.382812 241.917969 140.265625 C 241.648438 141.152344 241.339844 142.019531 240.984375 142.875 C 240.632812 143.726562 240.238281 144.5625 239.800781 145.375 C 239.363281 146.191406 238.890625 146.984375 238.378906 147.75 C 237.863281 148.519531 237.3125 149.261719 236.726562 149.972656 C 236.140625 150.6875 235.519531 151.371094 234.867188 152.027344 C 234.507812 152.382812 234.191406 152.773438 233.910156 153.195312 C 233.628906 153.617188 233.390625 154.0625 233.195312 154.527344 C 233 154.996094 232.855469 155.480469 232.757812 155.976562 C 232.65625 156.472656 232.609375 156.976562 232.609375 157.480469 C 232.609375 157.988281 232.65625 158.488281 232.757812 158.988281 C 232.855469 159.484375 233 159.964844 233.195312 160.433594 C 233.390625 160.902344 233.628906 161.347656 233.910156 161.769531 C 234.191406 162.191406 234.507812 162.578125 234.867188 162.9375 L 260.304688 188.296875 L 271.214844 177.382812 L 250.789062 156.957031 C 251.558594 155.851562 252.273438 154.710938 252.9375 153.535156 C 253.601562 152.363281 254.207031 151.160156 254.761719 149.929688 C 255.3125 148.703125 255.808594 147.449219 256.242188 146.171875 C 256.679688 144.898438 257.054688 143.605469 257.371094 142.292969 C 257.6875 140.984375 257.945312 139.660156 258.136719 138.328125 C 258.332031 136.992188 258.464844 135.652344 258.53125 134.308594 C 258.601562 132.960938 258.609375 131.613281 258.554688 130.265625 C 258.5 128.921875 258.382812 127.578125 258.203125 126.242188 C 258.023438 124.90625 257.78125 123.582031 257.480469 122.269531 C 257.179688 120.953125 256.816406 119.65625 256.394531 118.375 C 255.972656 117.097656 255.492188 115.839844 254.953125 114.601562 C 254.414062 113.367188 253.820312 112.160156 253.167969 110.976562 C 252.515625 109.796875 251.8125 108.648438 251.054688 107.535156 C 250.296875 106.417969 249.492188 105.339844 248.632812 104.300781 C 247.777344 103.261719 246.875 102.261719 245.925781 101.304688 C 244.976562 100.347656 243.984375 99.4375 242.949219 98.570312 C 241.914062 97.707031 240.84375 96.890625 239.734375 96.125 C 238.625 95.359375 237.480469 94.648438 236.304688 93.988281 C 235.128906 93.328125 233.925781 92.722656 232.695312 92.175781 C 231.464844 91.628906 230.210938 91.136719 228.933594 90.707031 C 227.65625 90.273438 226.359375 89.902344 225.050781 89.589844 C 223.738281 89.277344 222.414062 89.027344 221.082031 88.835938 C 219.746094 88.648438 218.40625 88.519531 217.058594 88.453125 C 215.710938 88.390625 214.367188 88.386719 213.019531 88.445312 C 211.671875 88.503906 210.332031 88.625 208.996094 88.8125 C 207.660156 88.996094 206.335938 89.238281 205.023438 89.546875 C 203.710938 89.851562 202.414062 90.21875 201.136719 90.644531 C 199.855469 91.070312 198.601562 91.554688 197.367188 92.097656 C 196.132812 92.640625 194.925781 93.242188 193.746094 93.894531 C 192.570312 94.550781 191.421875 95.257812 190.3125 96.019531 C 189.199219 96.78125 188.121094 97.589844 187.085938 98.449219 C 186.046875 99.3125 185.050781 100.21875 184.097656 101.171875 C 183.085938 102.179688 182.125 103.238281 181.21875 104.34375 C 180.308594 105.449219 179.457031 106.59375 178.664062 107.78125 C 177.867188 108.972656 177.132812 110.195312 176.457031 111.457031 C 175.78125 112.71875 175.171875 114.007812 174.625 115.328125 C 174.074219 116.652344 173.59375 117.996094 173.179688 119.363281 C 172.761719 120.730469 172.414062 122.117188 172.136719 123.519531 C 171.855469 124.921875 171.648438 126.335938 171.507812 127.757812 C 171.367188 129.183594 171.296875 130.609375 171.296875 132.039062 C 171.296875 133.46875 171.367188 134.894531 171.507812 136.320312 C 171.648438 137.742188 171.855469 139.15625 172.136719 140.558594 C 172.414062 141.960938 172.761719 143.34375 173.179688 144.714844 C 173.59375 146.082031 174.074219 147.425781 174.625 148.746094 C 175.171875 150.066406 175.78125 151.359375 176.457031 152.621094 C 177.132812 153.882812 177.867188 155.105469 178.664062 156.292969 C 179.457031 157.484375 180.308594 158.628906 181.21875 159.734375 C 182.125 160.839844 183.085938 161.894531 184.097656 162.90625 Z M 194.976562 152.027344 " fill-opacity="1" fill-rule="nonzero"/><path fill="#08946c" d="M 270.425781 198.472656 L 281.339844 187.558594 L 291.5 197.71875 L 280.585938 208.632812 Z M 270.425781 198.472656 " fill-opacity="1" fill-rule="nonzero"/></svg>