<svg xmlns="http://www.w3.org/2000/svg" xmlns:xlink="http://www.w3.org/1999/xlink" width="1080" zoomAndPan="magnify" viewBox="0 0 810 479.999983" height="640" preserveAspectRatio="xMidYMid meet" version="1.0"><defs><clipPath id="b4490340bb"><path d="M 177 0 L 615.644531 0 L 615.644531 480 L 177 480 Z M 177 0 " clip-rule="nonzero"/></clipPath></defs><g clip-path="url(#b4490340bb)"><path fill="#08946c" d="M 396.714844 0.386719 C 293.269531 0.386719 209.191406 84.460938 209.191406 187.910156 C 209.191406 229.5 222.988281 267.792969 245.980469 298.925781 L 179.238281 412.875 C 177.449219 415.925781 177.328125 419.667969 178.914062 422.804688 C 180.5 425.976562 183.554688 428.09375 187.054688 428.5 L 239.144531 434.359375 L 267.46875 475.054688 C 269.503906 477.984375 272.878906 479.695312 276.421875 479.574219 C 280 479.410156 283.257812 477.496094 285.046875 474.40625 L 346.90625 368.597656 C 362.777344 372.992188 379.460938 375.433594 396.714844 375.433594 C 413.96875 375.433594 430.65625 372.992188 446.527344 368.597656 L 508.382812 474.40625 C 510.175781 477.496094 513.429688 479.410156 517.011719 479.574219 C 520.550781 479.695312 523.929688 477.984375 525.964844 475.054688 L 554.289062 434.359375 L 606.378906 428.5 C 609.878906 428.09375 612.929688 425.976562 614.515625 422.804688 C 616.105469 419.667969 615.980469 415.925781 614.191406 412.875 L 547.449219 298.925781 C 570.445312 267.792969 584.238281 229.5 584.238281 187.910156 C 584.238281 84.460938 500.164062 0.386719 396.714844 0.386719 Z M 396.714844 21.222656 C 488.890625 21.222656 563.402344 95.734375 563.402344 187.910156 C 563.402344 227.097656 549.8125 262.992188 527.265625 291.4375 C 527.023438 291.765625 526.820312 292.089844 526.613281 292.414062 C 496.09375 330.34375 449.292969 354.597656 396.714844 354.597656 C 344.542969 354.597656 298.03125 330.832031 267.46875 293.390625 C 267.101562 292.699219 266.652344 292.050781 266.164062 291.4375 C 243.621094 262.992188 230.027344 227.097656 230.027344 187.910156 C 230.027344 95.734375 304.539062 21.222656 396.714844 21.222656 Z M 396.714844 31.640625 C 390.976562 31.640625 386.296875 36.320312 386.296875 42.058594 C 386.296875 47.796875 390.976562 52.476562 396.714844 52.476562 C 402.453125 52.476562 407.132812 47.796875 407.132812 42.058594 C 407.132812 36.320312 402.453125 31.640625 396.714844 31.640625 Z M 366.113281 34.570312 C 360.457031 35.710938 356.875 41.285156 357.972656 46.941406 C 359.113281 52.597656 364.6875 56.179688 370.34375 55.082031 C 376 53.941406 379.582031 48.367188 378.484375 42.710938 C 377.386719 37.050781 371.730469 33.429688 366.113281 34.570312 Z M 423.085938 34.570312 C 419.097656 35.382812 415.800781 38.476562 414.945312 42.710938 C 413.808594 48.367188 417.429688 53.941406 423.085938 55.082031 C 428.742188 56.21875 434.316406 52.597656 435.457031 46.941406 C 436.597656 41.285156 432.976562 35.710938 427.320312 34.570312 C 425.894531 34.285156 424.429688 34.285156 423.085938 34.570312 Z M 341.042969 42.710938 C 339.703125 42.710938 338.15625 43.117188 336.8125 43.6875 C 331.480469 45.882812 329.082031 51.703125 331.277344 57.035156 C 333.476562 62.363281 339.621094 65.089844 344.953125 62.894531 C 350.28125 60.695312 352.683594 54.550781 350.484375 49.21875 C 348.816406 45.230469 345.113281 42.75 341.042969 42.710938 Z M 452.386719 42.710938 C 448.316406 42.75 444.613281 45.230469 442.945312 49.21875 C 440.746094 54.550781 443.148438 60.695312 448.480469 62.894531 C 453.8125 65.089844 459.957031 62.363281 462.152344 57.035156 C 464.351562 51.703125 461.949219 45.882812 456.617188 43.6875 C 455.277344 43.117188 453.730469 42.710938 452.386719 42.710938 Z M 313.695312 56.382812 C 312.355469 56.628906 310.96875 57.195312 309.789062 58.011719 C 304.988281 61.226562 303.644531 67.535156 306.859375 72.335938 C 310.074219 77.136719 316.707031 78.480469 321.511719 75.265625 C 326.3125 72.050781 327.65625 65.742188 324.441406 60.941406 C 322.039062 57.359375 317.683594 55.609375 313.695312 56.382812 Z M 475.828125 56.382812 C 473.222656 56.910156 470.578125 58.539062 468.992188 60.941406 C 465.777344 65.742188 467.117188 72.050781 471.921875 75.265625 C 476.722656 78.480469 483.355469 77.136719 486.570312 72.335938 C 489.785156 67.535156 488.441406 61.226562 483.640625 58.011719 C 481.238281 56.421875 478.433594 55.855469 475.828125 56.382812 Z M 293.511719 74.289062 C 290.828125 74.289062 288.386719 75.507812 286.351562 77.542969 C 282.28125 81.613281 282.28125 88.125 286.351562 92.195312 C 290.417969 96.265625 296.929688 96.265625 301 92.195312 C 305.070312 88.125 305.070312 81.613281 301 77.542969 C 298.964844 75.507812 296.199219 74.289062 293.511719 74.289062 Z M 499.917969 74.289062 C 497.234375 74.289062 494.464844 75.507812 492.429688 77.542969 C 488.363281 81.613281 488.363281 88.125 492.429688 92.195312 C 496.5 96.265625 503.011719 96.265625 507.082031 92.195312 C 511.152344 88.125 511.152344 81.613281 507.082031 77.542969 C 505.046875 75.507812 502.605469 74.289062 499.917969 74.289062 Z M 273.328125 96.753906 C 270.722656 97.28125 268.402344 98.582031 266.816406 100.984375 C 263.601562 105.785156 264.945312 112.421875 269.746094 115.636719 C 274.546875 118.851562 280.855469 117.507812 284.070312 112.707031 C 287.285156 107.902344 285.941406 101.269531 281.140625 98.054688 C 278.738281 96.46875 275.933594 96.222656 273.328125 96.753906 Z M 515.871094 96.753906 C 514.527344 96.996094 513.46875 97.566406 512.289062 98.378906 C 507.488281 101.59375 506.144531 107.902344 509.359375 112.707031 C 512.574219 117.507812 518.882812 118.851562 523.683594 115.636719 C 528.488281 112.421875 529.828125 105.785156 526.613281 100.984375 C 524.214844 97.402344 519.859375 95.980469 515.871094 96.753906 Z M 393.132812 111.726562 C 392.320312 116.164062 381.210938 134.597656 357.324219 136.144531 L 357.324219 154.703125 L 386.625 154.703125 L 386.625 257.582031 L 412.667969 257.582031 L 412.667969 111.726562 Z M 261.933594 121.820312 C 257.863281 121.863281 254.160156 124.019531 252.492188 128.007812 C 250.292969 133.335938 252.695312 139.484375 258.027344 141.679688 C 263.355469 143.878906 269.503906 141.476562 271.699219 136.144531 C 273.898438 130.816406 271.171875 124.667969 265.839844 122.472656 C 264.496094 121.902344 263.277344 121.820312 261.933594 121.820312 Z M 531.5 121.820312 C 530.15625 121.820312 528.933594 121.902344 527.589844 122.472656 C 522.261719 124.667969 519.535156 130.816406 521.730469 136.144531 C 523.929688 141.476562 530.074219 143.878906 535.40625 141.679688 C 540.734375 139.484375 543.136719 133.335938 540.941406 128.007812 C 539.269531 124.019531 535.566406 121.863281 531.5 121.820312 Z M 251.515625 149.167969 C 247.527344 149.980469 244.230469 153.074219 243.375 157.308594 C 242.234375 162.964844 245.859375 168.539062 251.515625 169.679688 C 257.171875 170.816406 262.746094 167.195312 263.886719 161.539062 C 265.027344 155.882812 261.402344 150.308594 255.746094 149.167969 C 254.324219 148.882812 252.859375 148.882812 251.515625 149.167969 Z M 537.683594 149.167969 C 532.027344 150.308594 528.445312 155.882812 529.546875 161.539062 C 530.683594 167.15625 536.261719 170.777344 541.917969 169.679688 C 547.574219 168.539062 551.15625 162.964844 550.054688 157.308594 C 548.917969 151.652344 543.339844 148.070312 537.683594 149.167969 Z M 305.558594 163.820312 L 298.070312 178.792969 L 281.464844 181.074219 L 293.511719 192.792969 L 290.582031 209.398438 L 305.558594 201.257812 L 320.207031 209.398438 L 317.277344 192.792969 L 329.324219 181.074219 L 313.046875 178.792969 Z M 482.664062 163.820312 L 475.175781 178.792969 L 458.574219 181.074219 L 470.617188 192.792969 L 467.6875 209.398438 L 482.664062 201.257812 L 497.3125 209.398438 L 494.382812 192.792969 L 506.429688 181.074219 L 490.152344 178.792969 Z M 250.863281 177.492188 C 245.125 177.492188 240.445312 182.171875 240.445312 187.910156 C 240.445312 193.648438 245.125 198.328125 250.863281 198.328125 C 256.601562 198.328125 261.28125 193.648438 261.28125 187.910156 C 261.28125 182.171875 256.601562 177.492188 250.863281 177.492188 Z M 542.566406 177.492188 C 536.828125 177.492188 532.148438 182.171875 532.148438 187.910156 C 532.148438 193.648438 536.828125 198.328125 542.566406 198.328125 C 548.304688 198.328125 552.984375 193.648438 552.984375 187.910156 C 552.984375 182.171875 548.304688 177.492188 542.566406 177.492188 Z M 251.515625 206.140625 C 245.859375 207.28125 242.277344 212.855469 243.375 218.511719 C 244.515625 224.167969 250.089844 227.75 255.746094 226.652344 C 261.402344 225.554688 264.984375 219.9375 263.886719 214.28125 C 262.746094 208.664062 257.171875 205.042969 251.515625 206.140625 Z M 537.683594 206.140625 C 533.695312 206.957031 530.398438 210.046875 529.546875 214.28125 C 528.40625 219.9375 532.027344 225.511719 537.683594 226.652344 C 543.339844 227.792969 548.917969 224.167969 550.054688 218.511719 C 551.195312 212.898438 547.574219 207.28125 541.917969 206.140625 C 540.492188 205.855469 539.027344 205.855469 537.683594 206.140625 Z M 261.933594 233.164062 C 260.589844 233.164062 259.367188 233.570312 258.027344 234.140625 C 252.695312 236.335938 250.292969 242.480469 252.492188 247.8125 C 254.6875 253.144531 260.507812 255.546875 265.839844 253.347656 C 271.171875 251.152344 273.898438 245.003906 271.699219 239.675781 C 270.03125 235.6875 266.003906 233.203125 261.933594 233.164062 Z M 531.5 233.164062 C 527.429688 233.203125 523.398438 235.6875 521.730469 239.675781 C 519.535156 245.003906 522.261719 251.152344 527.589844 253.347656 C 532.921875 255.546875 538.742188 253.144531 540.941406 247.8125 C 543.136719 242.480469 540.734375 236.335938 535.40625 234.140625 C 534.0625 233.570312 532.839844 233.164062 531.5 233.164062 Z M 273.328125 258.558594 C 271.984375 258.800781 270.925781 259.371094 269.746094 260.183594 C 264.945312 263.398438 263.601562 270.03125 266.816406 274.835938 C 270.03125 279.636719 276.339844 280.65625 281.140625 277.441406 C 285.941406 274.226562 287.285156 267.917969 284.070312 263.113281 C 281.671875 259.535156 277.316406 257.785156 273.328125 258.558594 Z M 520.105469 258.558594 C 516.117188 257.785156 511.761719 259.535156 509.359375 263.113281 C 506.144531 267.917969 507.488281 274.226562 512.289062 277.441406 C 517.09375 280.65625 523.398438 279.636719 526.613281 274.835938 C 529.828125 270.03125 528.488281 263.398438 523.683594 260.183594 C 522.503906 259.371094 521.445312 258.800781 520.105469 258.558594 Z M 293.511719 280.695312 C 290.828125 280.695312 288.386719 281.589844 286.351562 283.625 C 282.28125 287.695312 282.28125 294.207031 286.351562 298.277344 C 290.417969 302.34375 296.929688 302.34375 301 298.277344 C 305.070312 294.207031 305.070312 287.695312 301 283.625 C 298.964844 281.589844 296.199219 280.695312 293.511719 280.695312 Z M 499.917969 280.695312 C 497.234375 280.695312 494.464844 281.589844 492.429688 283.625 C 488.363281 287.695312 488.363281 294.207031 492.429688 298.277344 C 496.5 302.34375 503.011719 302.34375 507.082031 298.277344 C 511.152344 294.207031 511.152344 287.695312 507.082031 283.625 C 505.046875 281.589844 502.605469 280.695312 499.917969 280.695312 Z M 313.695312 298.925781 C 311.09375 299.457031 308.773438 301.082031 307.1875 303.484375 C 303.972656 308.285156 304.988281 314.59375 309.789062 317.808594 C 314.59375 321.023438 321.226562 319.679688 324.441406 314.878906 C 327.65625 310.078125 326.3125 303.769531 321.511719 300.554688 C 319.109375 298.96875 316.300781 298.398438 313.695312 298.925781 Z M 475.828125 298.925781 C 474.484375 299.171875 473.101562 299.742188 471.921875 300.554688 C 467.117188 303.769531 465.777344 310.078125 468.992188 314.878906 C 472.207031 319.679688 478.839844 321.023438 483.640625 317.808594 C 488.441406 314.59375 489.460938 308.285156 486.246094 303.484375 C 483.84375 299.902344 479.816406 298.152344 475.828125 298.925781 Z M 340.71875 312.273438 C 336.648438 312.316406 332.945312 314.796875 331.277344 318.785156 C 329.082031 324.117188 331.480469 329.9375 336.8125 332.132812 C 342.144531 334.332031 348.289062 331.929688 350.484375 326.597656 C 352.683594 321.269531 350.28125 315.125 344.953125 312.925781 C 343.609375 312.355469 342.0625 312.273438 340.71875 312.273438 Z M 452.710938 312.273438 C 451.371094 312.273438 449.824219 312.355469 448.480469 312.925781 C 443.148438 315.125 440.746094 321.269531 442.945312 326.597656 C 445.144531 331.929688 451.289062 334.332031 456.617188 332.132812 C 461.949219 329.9375 464.351562 324.117188 462.152344 318.785156 C 460.484375 314.796875 456.78125 312.316406 452.710938 312.273438 Z M 260.304688 315.855469 C 278.738281 335.472656 301.042969 351.464844 326.394531 361.761719 L 274.957031 449.664062 L 253.792969 418.734375 C 252.042969 416.292969 249.277344 414.785156 246.304688 414.5 L 205.609375 409.617188 Z M 533.125 315.855469 L 587.820312 409.617188 L 547.125 414.5 C 544.15625 414.785156 541.386719 416.292969 539.636719 418.734375 L 518.476562 449.664062 L 467.039062 361.761719 C 492.390625 351.464844 514.691406 335.472656 533.125 315.855469 Z M 366.113281 320.738281 C 362.125 321.554688 358.828125 324.644531 357.972656 328.878906 C 356.835938 334.535156 360.457031 340.109375 366.113281 341.25 C 371.769531 342.390625 377.34375 338.765625 378.484375 333.109375 C 379.582031 327.453125 375.960938 321.878906 370.34375 320.738281 C 368.921875 320.453125 367.457031 320.453125 366.113281 320.738281 Z M 423.085938 320.738281 C 417.429688 321.878906 413.847656 327.453125 414.945312 333.109375 C 416.085938 338.765625 421.660156 342.347656 427.320312 341.25 C 432.976562 340.109375 436.554688 334.535156 435.457031 328.878906 C 434.316406 323.222656 428.742188 319.601562 423.085938 320.738281 Z M 396.714844 323.34375 C 390.976562 323.34375 386.296875 328.023438 386.296875 333.761719 C 386.296875 339.5 390.976562 344.179688 396.714844 344.179688 C 402.453125 344.179688 407.132812 339.5 407.132812 333.761719 C 407.132812 328.023438 402.453125 323.34375 396.714844 323.34375 Z M 396.714844 323.34375 " fill-opacity="1" fill-rule="nonzero"/></g></svg>