<svg xmlns="http://www.w3.org/2000/svg" xmlns:xlink="http://www.w3.org/1999/xlink" width="1080" zoomAndPan="magnify" viewBox="0 0 810 479.999983" height="640" preserveAspectRatio="xMidYMid meet" version="1.0"><defs><clipPath id="23ee1cc637"><path d="M 177.445312 278 L 309 278 L 309 470 L 177.445312 470 Z M 177.445312 278 " clip-rule="nonzero"/></clipPath><clipPath id="a50631d33b"><path d="M 461 46 L 652.195312 46 L 652.195312 237 L 461 237 Z M 461 46 " clip-rule="nonzero"/></clipPath></defs><path fill="#08946c" d="M 354.605469 269.484375 C 354.363281 268.929688 354.226562 268.347656 354.195312 267.746094 C 354.160156 267.140625 354.234375 266.550781 354.410156 265.96875 C 354.585938 265.390625 354.859375 264.863281 355.226562 264.378906 C 355.589844 263.898438 356.03125 263.496094 356.539062 263.167969 C 357.328125 262.714844 358.175781 262.488281 359.085938 262.488281 C 359.996094 262.488281 360.84375 262.714844 361.632812 263.167969 C 362.164062 263.46875 362.640625 263.84375 363.058594 264.289062 L 397.683594 302.226562 C 398.914062 303.621094 400.304688 304.828125 401.859375 305.84375 C 403.214844 306.777344 404.644531 307.570312 406.15625 308.222656 C 407.664062 308.875 409.222656 309.371094 410.832031 309.71875 C 412.4375 310.0625 414.0625 310.246094 415.707031 310.273438 C 417.351562 310.296875 418.984375 310.160156 420.601562 309.867188 L 422.433594 309.457031 C 423.558594 309.128906 424.660156 308.738281 425.742188 308.285156 C 428.464844 307.03125 430.875 305.335938 432.972656 303.195312 C 435.121094 301.175781 436.816406 298.835938 438.066406 296.167969 C 438.351562 295.644531 438.589844 295.101562 438.78125 294.539062 C 438.78125 294.027344 439.085938 293.519531 439.289062 293.011719 C 439.492188 292.5 439.898438 290.871094 440.105469 289.75 C 440.308594 288.632812 440.105469 288.476562 440.410156 287.816406 C 440.8125 283.65625 440.199219 279.648438 438.574219 275.796875 L 424.929688 244.023438 L 406.597656 202.0625 L 376.910156 197.480469 C 372.910156 196.847656 368.886719 196.617188 364.839844 196.785156 C 360.792969 196.953125 356.804688 197.519531 352.867188 198.480469 C 348.933594 199.441406 345.132812 200.78125 341.464844 202.5 C 337.800781 204.214844 334.335938 206.277344 331.078125 208.683594 C 328.59375 210.519531 326.261719 212.535156 324.078125 214.722656 C 321.898438 216.910156 319.890625 219.25 318.0625 221.742188 C 316.230469 224.230469 314.597656 226.84375 313.160156 229.582031 C 311.722656 232.316406 310.5 235.144531 309.488281 238.066406 L 296.246094 276.511719 C 296.023438 277.191406 295.671875 277.796875 295.195312 278.328125 C 294.714844 278.859375 294.148438 279.273438 293.496094 279.566406 L 255.203125 296.269531 L 307.144531 415.582031 L 340.246094 401.167969 C 340.863281 400.914062 341.507812 400.789062 342.179688 400.789062 C 342.851562 400.789062 343.496094 400.914062 344.113281 401.167969 L 377.621094 414.308594 L 411.382812 399.539062 Z M 354.605469 269.484375 " fill-opacity="1" fill-rule="nonzero"/><path fill="#08946c" d="M 489.34375 333.902344 C 487.089844 332.992188 484.75 332.535156 482.320312 332.527344 C 479.625 332.535156 477.046875 333.078125 474.578125 334.15625 L 457.671875 341.539062 C 457.125 341.808594 456.589844 342.101562 456.066406 342.421875 C 455.546875 342.742188 455.042969 343.089844 454.554688 343.457031 C 454.066406 343.824219 453.597656 344.214844 453.144531 344.628906 C 452.695312 345.039062 452.265625 345.472656 451.855469 345.929688 C 451.445312 346.382812 451.058594 346.855469 450.695312 347.34375 C 450.332031 347.835938 449.988281 348.34375 449.671875 348.867188 C 449.359375 349.390625 449.066406 349.925781 448.800781 350.476562 C 448.539062 351.027344 448.300781 351.589844 448.085938 352.164062 C 447.875 352.738281 447.691406 353.320312 447.535156 353.910156 C 447.378906 354.503906 447.253906 355.101562 447.152344 355.703125 C 447.054688 356.304688 446.984375 356.914062 446.945312 357.523438 C 446.902344 358.132812 446.890625 358.742188 446.90625 359.355469 C 446.925781 359.964844 446.96875 360.574219 447.046875 361.179688 C 447.121094 361.789062 447.222656 362.390625 447.355469 362.988281 C 447.488281 363.582031 447.648438 364.171875 447.835938 364.753906 C 448.027344 365.335938 448.242188 365.90625 448.484375 366.46875 C 448.726562 367.027344 448.996094 367.578125 449.289062 368.113281 C 449.585938 368.648438 449.90625 369.167969 450.25 369.671875 C 450.59375 370.179688 450.964844 370.664062 451.355469 371.136719 C 451.746094 371.605469 452.15625 372.054688 452.59375 372.484375 C 453.027344 372.917969 453.480469 373.324219 453.953125 373.714844 C 454.425781 374.101562 454.914062 374.464844 455.421875 374.804688 C 455.929688 375.144531 456.453125 375.460938 456.992188 375.753906 C 457.527344 376.042969 458.078125 376.308594 458.640625 376.546875 C 459.207031 376.785156 459.777344 376.996094 460.359375 377.179688 C 460.945312 377.363281 461.535156 377.519531 462.132812 377.644531 C 462.730469 377.773438 463.332031 377.871094 463.941406 377.941406 C 464.546875 378.011719 465.15625 378.054688 465.769531 378.066406 C 466.378906 378.078125 466.988281 378.0625 467.597656 378.015625 C 468.210938 377.96875 468.816406 377.894531 469.417969 377.789062 C 470.019531 377.6875 470.617188 377.554688 471.207031 377.394531 C 471.796875 377.234375 472.375 377.042969 472.949219 376.828125 L 476.257812 375.402344 L 489.804688 369.445312 C 490.964844 368.949219 492.066406 368.34375 493.105469 367.628906 C 494.144531 366.914062 495.101562 366.097656 495.976562 365.1875 C 496.851562 364.277344 497.628906 363.289062 498.304688 362.222656 C 498.980469 361.15625 499.539062 360.035156 499.988281 358.851562 C 500.472656 357.683594 500.839844 356.476562 501.085938 355.234375 C 501.332031 353.992188 501.457031 352.734375 501.457031 351.46875 C 501.457031 350.203125 501.332031 348.949219 501.085938 347.707031 C 500.839844 346.460938 500.472656 345.257812 499.988281 344.085938 C 499.488281 342.921875 498.875 341.824219 498.15625 340.785156 C 497.433594 339.746094 496.613281 338.789062 495.699219 337.914062 C 494.785156 337.039062 493.792969 336.261719 492.726562 335.589844 C 491.65625 334.914062 490.527344 334.351562 489.34375 333.902344 Z M 489.34375 333.902344 " fill-opacity="1" fill-rule="nonzero"/><path fill="#08946c" d="M 469.84375 289.140625 C 468.675781 288.65625 467.472656 288.289062 466.234375 288.039062 C 464.996094 287.792969 463.746094 287.667969 462.484375 287.667969 C 461.222656 287.667969 459.96875 287.792969 458.730469 288.039062 C 457.492188 288.289062 456.292969 288.65625 455.125 289.140625 L 451.152344 290.871094 L 450.390625 291.6875 C 450.28125 292.019531 450.195312 292.359375 450.136719 292.703125 L 449.828125 294.027344 C 449.472656 295.351562 449.117188 296.625 448.660156 297.847656 L 448.660156 298.101562 C 448.355469 298.964844 447.980469 299.796875 447.539062 300.597656 L 447.234375 301.15625 C 445.453125 304.671875 443.109375 307.761719 440.207031 310.425781 C 437.222656 313.328125 433.828125 315.621094 430.019531 317.300781 C 429.09375 317.730469 428.140625 318.105469 427.167969 318.421875 C 427.441406 319.730469 427.832031 321.003906 428.339844 322.238281 C 428.769531 323.207031 429.273438 324.132812 429.855469 325.019531 C 430.4375 325.902344 431.085938 326.734375 431.804688 327.511719 C 432.523438 328.289062 433.300781 329.003906 434.136719 329.652344 C 434.972656 330.300781 435.859375 330.878906 436.789062 331.382812 C 437.71875 331.886719 438.6875 332.308594 439.6875 332.652344 C 440.691406 332.996094 441.710938 333.257812 442.757812 333.433594 C 443.800781 333.609375 444.851562 333.695312 445.910156 333.699219 C 446.96875 333.699219 448.019531 333.613281 449.066406 333.441406 C 449.371094 333.46875 449.675781 333.46875 449.984375 333.441406 C 450.378906 333.347656 450.769531 333.230469 451.152344 333.085938 C 452.019531 332.867188 452.867188 332.597656 453.699219 332.273438 L 470.757812 324.785156 C 471.632812 324.410156 472.476562 323.972656 473.285156 323.472656 C 474.09375 322.972656 474.859375 322.417969 475.589844 321.800781 C 476.316406 321.1875 476.992188 320.523438 477.621094 319.808594 C 478.25 319.09375 478.820312 318.339844 479.335938 317.539062 C 479.851562 316.742188 480.308594 315.90625 480.699219 315.042969 C 481.09375 314.175781 481.417969 313.285156 481.679688 312.371094 C 481.941406 311.453125 482.132812 310.523438 482.253906 309.582031 C 482.375 308.640625 482.429688 307.691406 482.410156 306.742188 C 482.394531 305.789062 482.304688 304.84375 482.148438 303.90625 C 481.992188 302.96875 481.765625 302.046875 481.46875 301.144531 C 481.175781 300.238281 480.816406 299.359375 480.390625 298.507812 C 479.96875 297.65625 479.484375 296.84375 478.9375 296.0625 C 478.390625 295.285156 477.792969 294.546875 477.136719 293.859375 C 476.484375 293.167969 475.78125 292.527344 475.035156 291.941406 C 474.285156 291.355469 473.496094 290.828125 472.667969 290.359375 C 471.839844 289.890625 470.984375 289.484375 470.097656 289.140625 Z M 469.84375 289.140625 " fill-opacity="1" fill-rule="nonzero"/><path fill="#08946c" d="M 436.183594 244.582031 L 447.84375 271.367188 C 447.855469 271.453125 447.855469 271.539062 447.84375 271.621094 L 451.511719 279.972656 L 462.101562 275.289062 C 462.6875 275.042969 463.261719 274.769531 463.820312 274.464844 C 464.382812 274.160156 464.925781 273.832031 465.449219 273.476562 C 465.976562 273.117188 466.484375 272.734375 466.972656 272.328125 C 467.464844 271.921875 467.929688 271.488281 468.375 271.035156 C 468.824219 270.582031 469.246094 270.109375 469.644531 269.613281 C 470.042969 269.117188 470.417969 268.601562 470.765625 268.070312 C 471.113281 267.535156 471.433594 266.988281 471.726562 266.421875 C 472.023438 265.859375 472.285156 265.28125 472.523438 264.691406 C 472.757812 264.097656 472.964844 263.5 473.140625 262.886719 C 473.320312 262.277344 473.464844 261.65625 473.582031 261.03125 C 473.695312 260.40625 473.78125 259.773438 473.832031 259.140625 C 473.886719 258.507812 473.90625 257.871094 473.898438 257.234375 C 473.886719 256.597656 473.84375 255.964844 473.773438 255.332031 C 473.699219 254.699219 473.59375 254.074219 473.460938 253.453125 C 473.324219 252.828125 473.160156 252.214844 472.964844 251.609375 C 472.765625 251.003906 472.542969 250.410156 472.285156 249.828125 C 472.03125 249.246094 471.75 248.683594 471.441406 248.128906 C 471.132812 247.578125 470.796875 247.042969 470.433594 246.523438 C 470.074219 246.003906 469.6875 245.503906 469.273438 245.019531 C 468.863281 244.539062 468.429688 244.078125 467.972656 243.640625 C 467.515625 243.203125 467.039062 242.789062 466.542969 242.394531 C 466.042969 242.003906 465.527344 241.636719 464.996094 241.296875 C 464.460938 240.957031 463.914062 240.640625 463.347656 240.355469 C 462.785156 240.070312 462.207031 239.808594 461.617188 239.582031 C 461.027344 239.351562 460.425781 239.148438 459.816406 238.980469 C 459.207031 238.808594 458.589844 238.667969 457.96875 238.554688 C 457.34375 238.445312 456.714844 238.367188 456.085938 238.316406 C 455.453125 238.269531 454.820312 238.253906 454.1875 238.265625 C 453.554688 238.277344 452.925781 238.324219 452.296875 238.398438 C 451.667969 238.476562 451.042969 238.582031 450.425781 238.71875 C 449.808594 238.855469 449.199219 239.023438 448.597656 239.21875 C 447.996094 239.417969 447.40625 239.644531 446.824219 239.898438 Z M 436.183594 244.582031 " fill-opacity="1" fill-rule="nonzero"/><path fill="#08946c" d="M 483.691406 472.15625 C 484.507812 471.804688 485.304688 471.414062 486.082031 470.984375 C 486.859375 470.554688 487.617188 470.089844 488.347656 469.585938 C 489.078125 469.082031 489.78125 468.542969 490.460938 467.96875 C 491.136719 467.394531 491.785156 466.789062 492.402344 466.152344 C 493.019531 465.511719 493.605469 464.84375 494.15625 464.148438 C 494.710938 463.453125 495.226562 462.730469 495.703125 461.984375 C 496.183594 461.238281 496.628906 460.46875 497.03125 459.675781 C 497.433594 458.886719 497.796875 458.078125 498.121094 457.25 C 498.445312 456.421875 498.726562 455.582031 498.96875 454.726562 C 499.210938 453.871094 499.40625 453.007812 499.5625 452.132812 C 499.714844 451.257812 499.828125 450.378906 499.894531 449.492188 C 499.960938 448.605469 499.984375 447.71875 499.964844 446.832031 C 499.945312 445.945312 499.878906 445.058594 499.773438 444.179688 C 499.664062 443.296875 499.511719 442.421875 499.316406 441.554688 C 499.125 440.6875 498.886719 439.835938 498.605469 438.992188 C 498.328125 438.148438 498.007812 437.320312 497.644531 436.511719 L 475.851562 386.707031 L 474.984375 387.011719 L 473.710938 387.421875 L 472.132812 387.828125 L 470.859375 388.132812 L 469.28125 388.132812 C 468.839844 388.160156 468.398438 388.160156 467.957031 388.132812 L 465.15625 388.132812 C 463.933594 388.210938 462.714844 388.210938 461.492188 388.132812 L 460.675781 388.132812 C 459.65625 388.132812 458.640625 387.726562 457.621094 387.421875 L 456.90625 387.421875 C 455.738281 387.0625 454.617188 386.605469 453.496094 386.148438 L 452.679688 385.894531 C 451.71875 385.433594 450.785156 384.925781 449.878906 384.363281 L 449.371094 384.058594 C 448.339844 383.390625 447.355469 382.660156 446.417969 381.871094 L 445.707031 381.257812 C 444.890625 380.496094 444.074219 379.679688 443.3125 378.816406 L 443.3125 378.507812 C 442.480469 377.558594 441.714844 376.558594 441.019531 375.503906 C 440.878906 375.214844 440.710938 374.941406 440.511719 374.691406 C 439.820312 373.5625 439.207031 372.390625 438.679688 371.175781 C 437.894531 369.402344 437.296875 367.574219 436.878906 365.679688 C 436.460938 363.789062 436.234375 361.875 436.199219 359.9375 C 436.167969 358 436.324219 356.082031 436.671875 354.175781 C 437.019531 352.269531 437.550781 350.417969 438.269531 348.617188 C 438.941406 346.839844 439.773438 345.144531 440.765625 343.523438 C 440.105469 343.523438 439.441406 343.21875 438.832031 343.066406 L 437.609375 342.761719 C 436.367188 342.402344 435.160156 341.941406 433.992188 341.386719 L 433.535156 341.386719 C 432.515625 340.902344 431.53125 340.359375 430.582031 339.757812 L 429.511719 338.992188 C 428.757812 338.523438 428.042969 338 427.371094 337.414062 L 426.304688 336.445312 C 425.640625 335.886719 425.03125 335.277344 424.46875 334.613281 L 423.503906 333.542969 C 422.890625 332.832031 422.382812 332.066406 421.824219 331.304688 C 421.601562 330.953125 421.363281 330.613281 421.109375 330.285156 C 420.382812 329.105469 419.738281 327.882812 419.175781 326.621094 C 418.765625 325.652344 418.410156 324.632812 418.105469 323.664062 C 418.082031 323.34375 418.082031 323.019531 418.105469 322.699219 C 418.105469 322.035156 417.699219 321.324219 417.546875 320.609375 C 416.628906 320.660156 415.710938 320.660156 414.796875 320.609375 L 414.03125 320.609375 C 411.105469 320.398438 408.253906 319.820312 405.476562 318.878906 C 404.171875 318.425781 402.898438 317.902344 401.65625 317.300781 L 401.199219 317.300781 C 400.109375 316.773438 399.054688 316.179688 398.042969 315.519531 L 396.667969 314.601562 C 395.867188 313.964844 395.101562 313.285156 394.375 312.566406 L 393.304688 311.75 L 391.523438 310.019531 C 391.117188 309.609375 390.707031 309.304688 390.351562 308.898438 L 376.550781 293.621094 L 448.199219 458.304688 C 448.554688 459.113281 448.949219 459.898438 449.382812 460.667969 C 449.816406 461.4375 450.285156 462.179688 450.792969 462.902344 C 451.296875 463.625 451.835938 464.320312 452.410156 464.992188 C 452.984375 465.660156 453.589844 466.300781 454.226562 466.910156 C 454.863281 467.519531 455.53125 468.097656 456.222656 468.644531 C 456.917969 469.1875 457.636719 469.699219 458.378906 470.171875 C 459.121094 470.644531 459.886719 471.082031 460.671875 471.480469 C 461.460938 471.882812 462.265625 472.242188 463.085938 472.5625 C 463.90625 472.882812 464.742188 473.164062 465.589844 473.402344 C 466.441406 473.640625 467.300781 473.835938 468.167969 473.992188 C 469.035156 474.144531 469.910156 474.257812 470.789062 474.328125 C 471.667969 474.394531 472.546875 474.421875 473.429688 474.402344 C 474.3125 474.386719 475.191406 474.324219 476.066406 474.222656 C 476.941406 474.117188 477.808594 473.972656 478.671875 473.785156 C 479.535156 473.59375 480.382812 473.363281 481.222656 473.09375 C 482.0625 472.820312 482.886719 472.507812 483.691406 472.15625 Z M 483.691406 472.15625 " fill-opacity="1" fill-rule="nonzero"/><path fill="#08946c" d="M 430.886719 199.925781 C 428.605469 199.019531 426.238281 198.570312 423.78125 198.570312 C 421.328125 198.570312 418.960938 199.019531 416.679688 199.925781 L 431.957031 235.214844 C 432.777344 234.832031 433.570312 234.390625 434.332031 233.894531 C 435.09375 233.402344 435.816406 232.855469 436.5 232.257812 C 437.183594 231.660156 437.820312 231.015625 438.414062 230.328125 C 439.003906 229.636719 439.546875 228.910156 440.035156 228.148438 C 440.523438 227.382812 440.957031 226.585938 441.332031 225.761719 C 441.707031 224.933594 442.023438 224.085938 442.28125 223.214844 C 442.535156 222.34375 442.730469 221.457031 442.859375 220.558594 C 442.988281 219.660156 443.054688 218.757812 443.058594 217.847656 C 443.039062 215.164062 442.515625 212.585938 441.480469 210.109375 C 440.972656 208.953125 440.363281 207.859375 439.640625 206.824219 C 438.921875 205.789062 438.105469 204.832031 437.199219 203.960938 C 436.289062 203.085938 435.304688 202.308594 434.242188 201.628906 C 433.179688 200.949219 432.0625 200.382812 430.886719 199.925781 Z M 430.886719 199.925781 " fill-opacity="1" fill-rule="nonzero"/><g clip-path="url(#23ee1cc637)"><path fill="#08946c" d="M 308.316406 443.691406 L 299.914062 424.441406 L 243.898438 295.660156 L 236.515625 278.957031 L 177.394531 304.417969 L 249.398438 469.40625 Z M 308.316406 443.691406 " fill-opacity="1" fill-rule="nonzero"/></g><g clip-path="url(#a50631d33b)"><path fill="#08946c" d="M 633.203125 162.292969 C 633.328125 161.820312 633.515625 161.375 633.769531 160.957031 C 634.023438 160.539062 634.332031 160.164062 634.691406 159.835938 C 635.054688 159.503906 635.453125 159.234375 635.894531 159.019531 C 636.332031 158.804688 636.792969 158.65625 637.277344 158.574219 L 652.09375 155.976562 L 652.09375 127.257812 L 637.226562 124.660156 C 636.742188 124.578125 636.28125 124.429688 635.84375 124.21875 C 635.402344 124.003906 635.003906 123.730469 634.640625 123.402344 C 634.28125 123.070312 633.972656 122.699219 633.71875 122.28125 C 633.464844 121.859375 633.277344 121.414062 633.152344 120.941406 C 631.421875 114.386719 628.859375 108.171875 625.460938 102.304688 C 625.222656 101.886719 625.046875 101.441406 624.933594 100.972656 C 624.820312 100.503906 624.773438 100.027344 624.796875 99.542969 C 624.820312 99.0625 624.910156 98.59375 625.066406 98.136719 C 625.222656 97.679688 625.4375 97.253906 625.714844 96.855469 L 634.371094 84.484375 L 614.003906 64.113281 L 601.578125 72.769531 C 601.164062 73.039062 600.722656 73.242188 600.25 73.382812 C 599.777344 73.523438 599.296875 73.59375 598.804688 73.59375 C 598.3125 73.59375 597.828125 73.523438 597.355469 73.382812 C 596.882812 73.242188 596.441406 73.039062 596.027344 72.769531 L 595.316406 72.363281 C 589.730469 69.292969 583.859375 66.953125 577.695312 65.335938 C 577.226562 65.210938 576.785156 65.027344 576.367188 64.777344 C 575.953125 64.527344 575.578125 64.222656 575.25 63.867188 C 574.921875 63.511719 574.648438 63.113281 574.433594 62.679688 C 574.214844 62.246094 574.066406 61.789062 573.980469 61.3125 L 571.382812 46.445312 L 542.558594 46.445312 L 539.910156 61.3125 C 539.824219 61.789062 539.675781 62.246094 539.457031 62.679688 C 539.242188 63.113281 538.96875 63.511719 538.640625 63.867188 C 538.3125 64.222656 537.9375 64.527344 537.523438 64.777344 C 537.105469 65.027344 536.664062 65.210938 536.195312 65.335938 C 533.492188 66.039062 530.84375 66.90625 528.25 67.933594 C 524.574219 69.363281 521.027344 71.0625 517.609375 73.023438 C 517.183594 73.269531 516.738281 73.449219 516.261719 73.566406 C 515.789062 73.679688 515.308594 73.726562 514.820312 73.707031 C 514.332031 73.683594 513.859375 73.589844 513.398438 73.433594 C 512.9375 73.273438 512.507812 73.054688 512.109375 72.769531 L 499.683594 64.113281 L 479.3125 84.484375 L 488.023438 96.855469 C 488.285156 97.265625 488.484375 97.707031 488.621094 98.175781 C 488.757812 98.640625 488.828125 99.121094 488.828125 99.605469 C 488.828125 100.09375 488.757812 100.570312 488.621094 101.039062 C 488.484375 101.507812 488.285156 101.945312 488.023438 102.355469 C 484.695312 108.269531 482.199219 114.515625 480.535156 121.097656 C 480.410156 121.558594 480.21875 122 479.96875 122.410156 C 479.714844 122.820312 479.410156 123.1875 479.054688 123.511719 C 478.699219 123.835938 478.304688 124.105469 477.875 124.316406 C 477.441406 124.53125 476.988281 124.679688 476.511719 124.761719 L 461.644531 127.359375 L 461.644531 156.078125 L 476.5625 158.726562 C 477.046875 158.808594 477.507812 158.957031 477.945312 159.171875 C 478.386719 159.386719 478.785156 159.65625 479.148438 159.988281 C 479.507812 160.316406 479.816406 160.691406 480.070312 161.109375 C 480.324219 161.527344 480.511719 161.972656 480.636719 162.445312 C 482.347656 169.007812 484.910156 175.222656 488.328125 181.082031 C 488.589844 181.492188 488.789062 181.933594 488.929688 182.398438 C 489.066406 182.867188 489.132812 183.34375 489.132812 183.832031 C 489.132812 184.320312 489.066406 184.796875 488.929688 185.265625 C 488.789062 185.734375 488.589844 186.171875 488.328125 186.582031 L 479.621094 198.957031 L 499.988281 219.324219 L 512.414062 210.617188 C 512.820312 210.359375 513.257812 210.164062 513.71875 210.027344 C 514.183594 209.894531 514.65625 209.828125 515.136719 209.828125 C 515.621094 209.828125 516.09375 209.894531 516.554688 210.027344 C 517.019531 210.164062 517.453125 210.359375 517.863281 210.617188 C 523.6875 213.796875 529.816406 216.207031 536.246094 217.847656 C 536.710938 217.976562 537.148438 218.164062 537.558594 218.417969 C 537.96875 218.667969 538.335938 218.972656 538.660156 219.328125 C 538.984375 219.683594 539.253906 220.078125 539.464844 220.511719 C 539.679688 220.945312 539.828125 221.398438 539.910156 221.871094 L 542.507812 236.742188 L 571.230469 236.742188 L 573.878906 221.820312 C 573.972656 221.339844 574.132812 220.886719 574.355469 220.453125 C 574.582031 220.019531 574.863281 219.625 575.203125 219.273438 C 575.542969 218.921875 575.921875 218.625 576.347656 218.382812 C 576.769531 218.140625 577.222656 217.960938 577.695312 217.847656 C 584.214844 216.101562 590.390625 213.539062 596.230469 210.160156 C 596.640625 209.894531 597.082031 209.695312 597.550781 209.558594 C 598.015625 209.421875 598.496094 209.351562 598.980469 209.351562 C 599.46875 209.351562 599.945312 209.421875 600.414062 209.558594 C 600.882812 209.695312 601.320312 209.894531 601.730469 210.160156 L 614.15625 218.867188 L 634.527344 198.5 L 625.867188 186.125 C 625.609375 185.714844 625.414062 185.28125 625.28125 184.816406 C 625.144531 184.355469 625.078125 183.882812 625.078125 183.398438 C 625.078125 182.917969 625.144531 182.445312 625.28125 181.980469 C 625.414062 181.519531 625.609375 181.082031 625.867188 180.675781 C 629.09375 174.859375 631.539062 168.730469 633.203125 162.292969 Z M 556.816406 188.824219 C 553.433594 188.820312 550.085938 188.453125 546.777344 187.726562 C 543.472656 187.003906 540.28125 185.933594 537.203125 184.515625 C 534.128906 183.101562 531.238281 181.375 528.535156 179.335938 C 525.832031 177.296875 523.378906 174.996094 521.171875 172.425781 C 518.273438 169.078125 515.898438 165.390625 514.054688 161.363281 C 512.210938 157.335938 510.96875 153.128906 510.324219 148.746094 C 510.28125 148.40625 510.28125 148.066406 510.324219 147.726562 C 509.949219 145.65625 509.746094 143.570312 509.714844 141.464844 C 509.703125 139.554688 509.808594 137.652344 510.03125 135.753906 C 510.253906 133.855469 510.589844 131.980469 511.039062 130.121094 C 511.488281 128.265625 512.050781 126.445312 512.722656 124.65625 C 513.394531 122.867188 514.175781 121.128906 515.058594 119.433594 C 515.941406 117.742188 516.925781 116.105469 518.007812 114.535156 C 519.09375 112.960938 520.265625 111.457031 521.535156 110.027344 C 522.800781 108.597656 524.148438 107.25 525.578125 105.984375 C 527.007812 104.714844 528.511719 103.542969 530.082031 102.457031 C 533.039062 100.417969 536.179688 98.71875 539.503906 97.367188 C 541.164062 96.722656 542.863281 96.199219 544.597656 95.789062 C 545.402344 95.574219 546.214844 95.378906 547.03125 95.210938 C 547.851562 95.039062 548.671875 94.890625 549.496094 94.761719 C 550.320312 94.632812 551.148438 94.527344 551.980469 94.445312 C 552.808594 94.363281 553.640625 94.300781 554.476562 94.261719 C 555.308594 94.222656 556.144531 94.203125 556.980469 94.210938 C 557.8125 94.214844 558.648438 94.242188 559.480469 94.292969 C 560.316406 94.339844 561.148438 94.414062 561.976562 94.503906 C 562.804688 94.597656 563.632812 94.714844 564.457031 94.851562 C 565.277344 94.988281 566.097656 95.148438 566.914062 95.328125 C 567.726562 95.511719 568.539062 95.710938 569.34375 95.9375 C 570.144531 96.160156 570.945312 96.40625 571.734375 96.671875 C 572.527344 96.9375 573.308594 97.226562 574.085938 97.535156 C 574.863281 97.839844 575.628906 98.167969 576.386719 98.519531 C 577.148438 98.867188 577.894531 99.234375 578.632812 99.625 C 579.375 100.011719 580.101562 100.421875 580.820312 100.847656 C 581.535156 101.273438 582.242188 101.71875 582.933594 102.183594 C 583.628906 102.648438 584.308594 103.132812 584.976562 103.632812 C 585.644531 104.132812 586.300781 104.652344 586.941406 105.1875 C 587.582031 105.722656 588.207031 106.273438 588.816406 106.84375 C 589.429688 107.410156 590.023438 107.996094 590.605469 108.597656 C 591.183594 109.195312 591.75 109.8125 592.296875 110.441406 C 592.84375 111.074219 593.375 111.71875 593.886719 112.375 C 594.398438 113.035156 594.894531 113.707031 595.375 114.390625 C 595.851562 115.074219 596.308594 115.773438 596.75 116.480469 C 597.191406 117.191406 597.613281 117.910156 598.015625 118.644531 C 598.417969 119.375 598.800781 120.117188 599.160156 120.867188 C 599.523438 121.621094 599.867188 122.378906 600.191406 123.152344 C 600.511719 123.921875 600.8125 124.699219 601.09375 125.484375 C 601.375 126.269531 601.636719 127.0625 601.875 127.863281 C 602.113281 128.664062 602.332031 129.46875 602.527344 130.28125 C 602.722656 131.09375 602.898438 131.910156 603.050781 132.730469 C 603.203125 133.550781 603.335938 134.375 603.445312 135.203125 C 603.554688 136.03125 603.640625 136.859375 603.707031 137.691406 C 603.769531 138.523438 603.8125 139.359375 603.835938 140.191406 C 603.855469 141.027344 603.855469 141.859375 603.832031 142.695312 C 603.808594 143.53125 603.761719 144.363281 603.691406 145.195312 C 603.625 146.027344 603.535156 146.855469 603.421875 147.683594 C 603.3125 148.511719 603.179688 149.335938 603.023438 150.15625 C 602.867188 150.976562 602.6875 151.792969 602.488281 152.601562 C 602.292969 153.414062 602.070312 154.21875 601.828125 155.015625 C 601.585938 155.816406 601.324219 156.609375 601.039062 157.394531 C 600.757812 158.179688 600.453125 158.957031 600.128906 159.722656 C 599.800781 160.492188 599.457031 161.253906 599.089844 162.003906 C 598.726562 162.753906 598.339844 163.496094 597.9375 164.226562 C 597.53125 164.957031 597.109375 165.675781 596.664062 166.382812 C 596.222656 167.089844 595.761719 167.785156 595.28125 168.46875 C 594.800781 169.152344 594.304688 169.820312 593.789062 170.476562 C 593.273438 171.132812 592.738281 171.777344 592.191406 172.40625 C 591.640625 173.035156 591.074219 173.648438 590.492188 174.246094 C 589.910156 174.84375 589.3125 175.425781 588.699219 175.992188 C 588.085938 176.558594 587.457031 177.109375 586.816406 177.644531 C 586.175781 178.175781 585.519531 178.691406 584.847656 179.191406 C 584.179688 179.6875 583.496094 180.167969 582.800781 180.632812 C 582.105469 181.09375 581.398438 181.535156 580.679688 181.960938 C 579.960938 182.386719 579.230469 182.792969 578.492188 183.175781 C 577.75 183.5625 577 183.929688 576.242188 184.277344 C 575.480469 184.621094 574.714844 184.945312 573.9375 185.253906 C 573.160156 185.558594 572.375 185.84375 571.582031 186.105469 C 570.789062 186.371094 569.992188 186.613281 569.1875 186.832031 C 568.382812 187.054688 567.570312 187.253906 566.753906 187.433594 C 565.941406 187.609375 565.121094 187.765625 564.296875 187.902344 C 563.472656 188.035156 562.644531 188.148438 561.816406 188.238281 C 560.984375 188.328125 560.152344 188.398438 559.320312 188.445312 C 558.488281 188.492188 557.652344 188.515625 556.816406 188.515625 Z M 556.816406 188.824219 " fill-opacity="1" fill-rule="nonzero"/></g><path fill="#08946c" d="M 556.917969 104.648438 C 553.609375 104.609375 550.351562 105 547.144531 105.820312 C 545.871094 106.175781 544.597656 106.582031 543.375 107.042969 C 540.71875 108.0625 538.222656 109.386719 535.890625 111.011719 C 534.480469 111.980469 533.148438 113.039062 531.886719 114.191406 C 530.628906 115.34375 529.453125 116.574219 528.363281 117.890625 C 527.273438 119.203125 526.28125 120.585938 525.382812 122.039062 C 524.484375 123.492188 523.691406 124.996094 523 126.558594 C 522.3125 128.121094 521.734375 129.722656 521.265625 131.363281 C 520.800781 133.007812 520.449219 134.671875 520.210938 136.363281 C 519.976562 138.054688 519.855469 139.753906 519.855469 141.460938 C 519.855469 143.167969 519.96875 144.867188 520.203125 146.558594 L 520.203125 147.421875 C 520.707031 150.84375 521.679688 154.125 523.117188 157.265625 C 524.554688 160.410156 526.402344 163.289062 528.65625 165.90625 C 529.160156 166.492188 529.679688 167.058594 530.21875 167.609375 C 530.757812 168.160156 531.3125 168.691406 531.882812 169.210938 C 532.457031 169.726562 533.042969 170.222656 533.644531 170.703125 C 534.246094 171.183594 534.863281 171.640625 535.496094 172.082031 C 536.128906 172.523438 536.773438 172.945312 537.429688 173.34375 C 538.085938 173.746094 538.757812 174.125 539.4375 174.484375 C 540.121094 174.84375 540.8125 175.179688 541.515625 175.496094 C 542.21875 175.8125 542.929688 176.105469 543.648438 176.375 C 544.371094 176.644531 545.097656 176.894531 545.835938 177.121094 C 546.570312 177.34375 547.3125 177.546875 548.0625 177.726562 C 548.8125 177.90625 549.566406 178.0625 550.324219 178.191406 C 551.082031 178.324219 551.84375 178.433594 552.609375 178.519531 C 553.375 178.601562 554.144531 178.664062 554.914062 178.699219 C 555.683594 178.734375 556.453125 178.746094 557.222656 178.734375 C 557.992188 178.722656 558.761719 178.6875 559.527344 178.628906 C 560.296875 178.570312 561.0625 178.484375 561.824219 178.378906 C 562.585938 178.269531 563.34375 178.140625 564.097656 177.984375 C 564.855469 177.828125 565.601562 177.652344 566.347656 177.449219 C 567.089844 177.246094 567.824219 177.023438 568.554688 176.773438 C 569.285156 176.527344 570.003906 176.257812 570.714844 175.964844 C 571.429688 175.671875 572.132812 175.355469 572.824219 175.019531 C 573.515625 174.683594 574.199219 174.324219 574.867188 173.945312 C 575.539062 173.566406 576.195312 173.167969 576.839844 172.746094 C 577.484375 172.324219 578.117188 171.886719 578.734375 171.425781 C 579.351562 170.964844 579.957031 170.488281 580.542969 169.988281 C 581.132812 169.492188 581.703125 168.976562 582.257812 168.445312 C 582.816406 167.910156 583.351562 167.359375 583.875 166.792969 C 584.394531 166.226562 584.898438 165.644531 585.382812 165.046875 C 585.867188 164.449219 586.332031 163.835938 586.78125 163.207031 C 587.226562 162.578125 587.652344 161.9375 588.058594 161.285156 C 588.464844 160.632812 588.851562 159.964844 589.21875 159.285156 C 589.582031 158.609375 589.925781 157.917969 590.246094 157.21875 C 590.570312 156.519531 590.867188 155.8125 591.144531 155.09375 C 591.421875 154.375 591.679688 153.648438 591.910156 152.914062 C 592.144531 152.179688 592.351562 151.4375 592.539062 150.691406 C 592.722656 149.945312 592.886719 149.191406 593.023438 148.433594 C 593.164062 147.675781 593.277344 146.917969 593.371094 146.152344 C 593.460938 145.386719 593.527344 144.621094 593.570312 143.851562 C 593.613281 143.082031 593.632812 142.3125 593.628906 141.542969 C 593.625 140.773438 593.597656 140.003906 593.542969 139.234375 C 593.492188 138.46875 593.414062 137.699219 593.3125 136.9375 C 593.210938 136.175781 593.085938 135.414062 592.941406 134.660156 C 592.792969 133.902344 592.621094 133.152344 592.425781 132.40625 C 592.230469 131.664062 592.011719 130.925781 591.769531 130.191406 C 591.53125 129.460938 591.265625 128.738281 590.980469 128.023438 C 590.691406 127.308594 590.386719 126.605469 590.054688 125.910156 C 589.722656 125.210938 589.371094 124.527344 589 123.855469 C 588.625 123.179688 588.230469 122.519531 587.816406 121.871094 C 587.402344 121.222656 586.96875 120.585938 586.515625 119.964844 C 586.058594 119.34375 585.585938 118.734375 585.09375 118.144531 C 584.601562 117.550781 584.09375 116.972656 583.5625 116.414062 C 583.035156 115.851562 582.492188 115.308594 581.929688 114.785156 C 581.367188 114.257812 580.789062 113.75 580.195312 113.257812 C 579.601562 112.769531 578.992188 112.296875 578.367188 111.84375 C 577.746094 111.394531 577.109375 110.960938 576.457031 110.546875 C 575.808594 110.136719 575.144531 109.746094 574.46875 109.375 C 573.796875 109.003906 573.109375 108.652344 572.414062 108.324219 C 571.714844 107.996094 571.011719 107.691406 570.292969 107.40625 C 569.578125 107.121094 568.855469 106.859375 568.121094 106.621094 C 567.390625 106.382812 566.652344 106.167969 565.90625 105.976562 C 565.160156 105.78125 564.410156 105.613281 563.652344 105.46875 C 562.898438 105.324219 562.136719 105.199219 561.375 105.101562 C 560.609375 105.003906 559.84375 104.929688 559.074219 104.878906 C 558.304688 104.828125 557.535156 104.804688 556.765625 104.800781 Z M 556.917969 104.648438 " fill-opacity="1" fill-rule="nonzero"/><path fill="#08946c" d="M 235.957031 125.679688 C 236.796875 127.609375 237.710938 129.503906 238.6875 131.367188 C 239.667969 133.234375 240.710938 135.058594 241.820312 136.847656 C 242.929688 138.636719 244.101562 140.386719 245.335938 142.089844 C 246.570312 143.796875 247.863281 145.457031 249.214844 147.070312 C 250.570312 148.683594 251.976562 150.246094 253.441406 151.757812 C 254.90625 153.269531 256.421875 154.730469 257.992188 156.132812 C 259.5625 157.535156 261.175781 158.882812 262.84375 160.171875 C 264.507812 161.460938 266.214844 162.6875 267.96875 163.855469 C 269.722656 165.019531 271.515625 166.121094 273.347656 167.160156 C 275.175781 168.199219 277.042969 169.171875 278.945312 170.074219 C 280.847656 170.980469 282.777344 171.816406 284.738281 172.582031 C 286.699219 173.347656 288.683594 174.042969 290.695312 174.667969 C 292.707031 175.292969 294.734375 175.847656 296.785156 176.324219 C 298.835938 176.804688 300.898438 177.210938 302.980469 177.542969 C 305.058594 177.875 307.144531 178.132812 309.242188 178.316406 C 311.339844 178.5 313.441406 178.605469 315.546875 178.636719 C 319.316406 178.636719 320.640625 180.371094 329.652344 197.019531 L 330.265625 196.714844 L 332.757812 195.289062 C 333.878906 194.628906 335.050781 194.015625 336.222656 193.457031 C 337.394531 192.898438 338.003906 192.640625 338.921875 192.234375 L 342.382812 190.808594 L 345.234375 189.839844 C 346.40625 189.433594 347.578125 189.078125 348.800781 188.773438 L 351.703125 188.058594 C 352.925781 187.753906 354.144531 187.550781 355.417969 187.347656 C 356.691406 187.140625 357.304688 186.988281 358.269531 186.886719 L 362.242188 186.53125 C 363.160156 186.53125 364.027344 186.53125 364.941406 186.53125 C 365.859375 186.53125 367.945312 186.53125 369.421875 186.53125 L 371.714844 186.53125 C 373.988281 186.660156 376.242188 186.914062 378.488281 187.296875 L 389.488281 188.976562 L 376.757812 159.898438 C 376.539062 159.398438 376.40625 158.875 376.355469 158.332031 C 376.308594 157.789062 376.34375 157.25 376.46875 156.71875 C 376.59375 156.1875 376.796875 155.6875 377.082031 155.222656 C 377.363281 154.753906 377.714844 154.34375 378.132812 153.992188 C 379.714844 152.570312 381.207031 151.058594 382.613281 149.460938 C 384.007812 147.910156 385.347656 146.3125 386.628906 144.664062 C 387.910156 143.019531 389.136719 141.332031 390.296875 139.597656 C 391.460938 137.867188 392.5625 136.09375 393.597656 134.285156 C 394.636719 132.476562 395.609375 130.628906 396.515625 128.75 C 397.421875 126.871094 398.261719 124.964844 399.035156 123.023438 C 399.804688 121.085938 400.507812 119.125 401.140625 117.136719 C 401.773438 115.148438 402.335938 113.140625 402.824219 111.113281 C 403.316406 109.082031 403.734375 107.039062 404.082031 104.984375 C 404.425781 102.925781 404.699219 100.859375 404.898438 98.78125 C 405.097656 96.707031 405.222656 94.625 405.277344 92.539062 C 405.328125 90.453125 405.308594 88.367188 405.210938 86.285156 C 405.117188 84.199219 404.949219 82.121094 404.707031 80.046875 C 404.464844 77.976562 404.148438 75.914062 403.757812 73.867188 C 403.371094 71.816406 402.910156 69.78125 402.378906 67.765625 C 401.84375 65.746094 401.242188 63.75 400.570312 61.777344 C 399.894531 59.800781 399.152344 57.855469 398.339844 55.929688 C 397.527344 54.007812 396.648438 52.117188 395.703125 50.257812 C 394.757812 48.398438 393.75 46.574219 392.675781 44.785156 C 391.597656 43 390.460938 41.25 389.265625 39.542969 C 388.066406 37.835938 386.808594 36.171875 385.492188 34.550781 C 384.175781 32.933594 382.804688 31.363281 381.375 29.84375 C 379.949219 28.320312 378.46875 26.851562 376.9375 25.433594 C 375.40625 24.015625 373.828125 22.65625 372.199219 21.351562 C 370.570312 20.046875 368.898438 18.800781 367.183594 17.613281 C 365.46875 16.425781 363.710938 15.300781 361.914062 14.238281 C 360.121094 13.175781 358.289062 12.179688 356.421875 11.246094 C 354.558594 10.316406 352.660156 9.449219 350.730469 8.652344 C 348.804688 7.851562 346.851562 7.121094 344.871094 6.460938 C 342.894531 5.800781 340.894531 5.214844 338.871094 4.695312 C 336.851562 4.175781 334.8125 3.730469 332.761719 3.355469 C 330.710938 2.980469 328.644531 2.679688 326.570312 2.453125 C 324.5 2.222656 322.417969 2.070312 320.332031 1.988281 L 359.800781 66.710938 C 360.179688 67.335938 360.414062 68.015625 360.503906 68.742188 C 360.59375 69.472656 360.527344 70.1875 360.308594 70.886719 C 360.085938 71.59375 359.726562 72.226562 359.226562 72.777344 C 358.730469 73.328125 358.140625 73.75 357.457031 74.042969 L 277.253906 108.976562 C 276.582031 109.28125 275.878906 109.4375 275.140625 109.4375 C 274.402344 109.4375 273.699219 109.28125 273.027344 108.976562 C 272.367188 108.660156 271.800781 108.222656 271.332031 107.664062 C 270.859375 107.101562 270.527344 106.472656 270.328125 105.769531 L 249.804688 32.796875 C 248.46875 34.367188 247.191406 35.984375 245.96875 37.640625 C 244.742188 39.300781 243.578125 41.003906 242.472656 42.742188 C 241.367188 44.484375 240.324219 46.261719 239.34375 48.074219 C 238.363281 49.890625 237.445312 51.734375 236.59375 53.613281 C 235.738281 55.488281 234.953125 57.394531 234.234375 59.328125 C 233.511719 61.257812 232.859375 63.214844 232.277344 65.191406 C 231.691406 67.167969 231.179688 69.164062 230.734375 71.179688 C 230.289062 73.191406 229.914062 75.21875 229.609375 77.257812 C 229.304688 79.296875 229.070312 81.347656 228.910156 83.402344 C 228.75 85.457031 228.660156 87.515625 228.640625 89.578125 C 228.621094 91.640625 228.675781 93.699219 228.800781 95.757812 C 228.925781 97.816406 229.121094 99.867188 229.390625 101.914062 C 229.660156 103.957031 229.996094 105.992188 230.40625 108.011719 C 230.816406 110.03125 231.296875 112.039062 231.84375 114.023438 C 232.394531 116.011719 233.011719 117.980469 233.695312 119.921875 C 234.382812 121.867188 235.136719 123.785156 235.957031 125.679688 Z M 235.957031 125.679688 " fill-opacity="1" fill-rule="nonzero"/></svg>